<?xml version="1.0" encoding="utf-8" standalone="no"?>
<!DOCTYPE svg PUBLIC "-//W3C//DTD SVG 1.1//EN"
  "http://www.w3.org/Graphics/SVG/1.1/DTD/svg11.dtd">
<!-- Created with matplotlib (https://matplotlib.org/) -->
<svg height="345.6pt" version="1.1" viewBox="0 0 460.8 345.6" width="460.8pt" xmlns="http://www.w3.org/2000/svg" xmlns:xlink="http://www.w3.org/1999/xlink">
 <defs>
  <style type="text/css">
*{stroke-linecap:butt;stroke-linejoin:round;}
  </style>
 </defs>
 <g id="figure_1">
  <g id="patch_1">
   <path d="M 0 345.6 
L 460.8 345.6 
L 460.8 0 
L 0 0 
z
" style="fill:#ffffff;"/>
  </g>
  <g id="patch_2">
   <path d="M 10.8 334.8 
L 450 334.8 
L 450 10.8 
L 10.8 10.8 
z
" style="fill:#e5e5e5;"/>
  </g>
  <g id="pane3d_1">
   <g id="patch_3">
    <path d="M 69.022747 263.207418 
L 194.724085 183.76996 
L 192.631291 31.978014 
L 59.92128 103.350937 
" style="fill:#f2f2f2;opacity:0.5;stroke:#f2f2f2;stroke-linejoin:miter;stroke-width:0.5;"/>
   </g>
  </g>
  <g id="pane3d_2">
   <g id="patch_4">
    <path d="M 194.724085 183.76996 
L 398.348434 228.180625 
L 406.867833 71.811455 
L 192.631291 31.978014 
" style="fill:#e6e6e6;opacity:0.5;stroke:#e6e6e6;stroke-linejoin:miter;stroke-width:0.5;"/>
   </g>
  </g>
  <g id="pane3d_3">
   <g id="patch_5">
    <path d="M 69.022747 263.207418 
L 283.263076 314.930875 
L 398.348434 228.180625 
L 194.724085 183.76996 
" style="fill:#ececec;opacity:0.5;stroke:#ececec;stroke-linejoin:miter;stroke-width:0.5;"/>
   </g>
  </g>
  <g id="axis3d_1">
   <g id="line2d_1">
    <path d="M 69.022747 263.207418 
L 283.263076 314.930875 
" style="fill:none;stroke:#ffffff;stroke-linecap:square;"/>
   </g>
   <g id="text_1">
    <!-- Mass -->
    <defs>
     <path d="M 9.8125 72.90625 
L 24.515625 72.90625 
L 43.109375 23.296875 
L 61.8125 72.90625 
L 76.515625 72.90625 
L 76.515625 0 
L 66.890625 0 
L 66.890625 64.015625 
L 48.09375 14.015625 
L 38.1875 14.015625 
L 19.390625 64.015625 
L 19.390625 0 
L 9.8125 0 
z
" id="DejaVuSans-77"/>
     <path d="M 34.28125 27.484375 
Q 23.390625 27.484375 19.1875 25 
Q 14.984375 22.515625 14.984375 16.5 
Q 14.984375 11.71875 18.140625 8.90625 
Q 21.296875 6.109375 26.703125 6.109375 
Q 34.1875 6.109375 38.703125 11.40625 
Q 43.21875 16.703125 43.21875 25.484375 
L 43.21875 27.484375 
z
M 52.203125 31.203125 
L 52.203125 0 
L 43.21875 0 
L 43.21875 8.296875 
Q 40.140625 3.328125 35.546875 0.953125 
Q 30.953125 -1.421875 24.3125 -1.421875 
Q 15.921875 -1.421875 10.953125 3.296875 
Q 6 8.015625 6 15.921875 
Q 6 25.140625 12.171875 29.828125 
Q 18.359375 34.515625 30.609375 34.515625 
L 43.21875 34.515625 
L 43.21875 35.40625 
Q 43.21875 41.609375 39.140625 45 
Q 35.0625 48.390625 27.6875 48.390625 
Q 23 48.390625 18.546875 47.265625 
Q 14.109375 46.140625 10.015625 43.890625 
L 10.015625 52.203125 
Q 14.9375 54.109375 19.578125 55.046875 
Q 24.21875 56 28.609375 56 
Q 40.484375 56 46.34375 49.84375 
Q 52.203125 43.703125 52.203125 31.203125 
z
" id="DejaVuSans-97"/>
     <path d="M 44.28125 53.078125 
L 44.28125 44.578125 
Q 40.484375 46.53125 36.375 47.5 
Q 32.28125 48.484375 27.875 48.484375 
Q 21.1875 48.484375 17.84375 46.4375 
Q 14.5 44.390625 14.5 40.28125 
Q 14.5 37.15625 16.890625 35.375 
Q 19.28125 33.59375 26.515625 31.984375 
L 29.59375 31.296875 
Q 39.15625 29.25 43.1875 25.515625 
Q 47.21875 21.78125 47.21875 15.09375 
Q 47.21875 7.46875 41.1875 3.015625 
Q 35.15625 -1.421875 24.609375 -1.421875 
Q 20.21875 -1.421875 15.453125 -0.5625 
Q 10.6875 0.296875 5.421875 2 
L 5.421875 11.28125 
Q 10.40625 8.6875 15.234375 7.390625 
Q 20.0625 6.109375 24.8125 6.109375 
Q 31.15625 6.109375 34.5625 8.28125 
Q 37.984375 10.453125 37.984375 14.40625 
Q 37.984375 18.0625 35.515625 20.015625 
Q 33.0625 21.96875 24.703125 23.78125 
L 21.578125 24.515625 
Q 13.234375 26.265625 9.515625 29.90625 
Q 5.8125 33.546875 5.8125 39.890625 
Q 5.8125 47.609375 11.28125 51.796875 
Q 16.75 56 26.8125 56 
Q 31.78125 56 36.171875 55.265625 
Q 40.578125 54.546875 44.28125 53.078125 
z
" id="DejaVuSans-115"/>
    </defs>
    <g style="fill:#555555;" transform="translate(142.570646 322.492718)scale(0.12 -0.12)">
     <use xlink:href="#DejaVuSans-77"/>
     <use x="86.279297" xlink:href="#DejaVuSans-97"/>
     <use x="147.558594" xlink:href="#DejaVuSans-115"/>
     <use x="199.658203" xlink:href="#DejaVuSans-115"/>
    </g>
   </g>
   <g id="Line3DCollection_1">
    <path d="M 100.118698 270.714829 
L 224.364012 190.234456 
L 223.757951 37.765458 
" style="fill:none;stroke:#ffffff;stroke-width:0.8;"/>
    <path d="M 136.615811 279.526227 
L 259.115367 197.81376 
L 260.277555 44.555623 
" style="fill:none;stroke:#ffffff;stroke-width:0.8;"/>
    <path d="M 173.695186 288.478199 
L 294.380467 205.505112 
L 297.364802 51.451332 
" style="fill:none;stroke:#ffffff;stroke-width:0.8;"/>
    <path d="M 211.370869 297.574136 
L 330.170788 213.311016 
L 335.033032 58.455063 
" style="fill:none;stroke:#ffffff;stroke-width:0.8;"/>
    <path d="M 249.657361 306.817539 
L 366.498154 221.234049 
L 373.296003 65.569376 
" style="fill:none;stroke:#ffffff;stroke-width:0.8;"/>
   </g>
   <g id="xtick_1">
    <g id="line2d_2">
     <path clip-path="url(#p5dd2747e57)" d="M 236.335135 168.421622 
" style="fill:none;stroke:#ffffff;stroke-linecap:square;stroke-width:0.8;"/>
    </g>
    <g id="line2d_3">
     <path d="M 101.189436 270.021255 
L 97.973214 272.104574 
" style="fill:none;stroke:#555555;stroke-linecap:square;stroke-width:0.8;"/>
    </g>
    <g id="text_2">
     <!-- -20% -->
     <defs>
      <path d="M 4.890625 31.390625 
L 31.203125 31.390625 
L 31.203125 23.390625 
L 4.890625 23.390625 
z
" id="DejaVuSans-45"/>
      <path d="M 19.1875 8.296875 
L 53.609375 8.296875 
L 53.609375 0 
L 7.328125 0 
L 7.328125 8.296875 
Q 12.9375 14.109375 22.625 23.890625 
Q 32.328125 33.6875 34.8125 36.53125 
Q 39.546875 41.84375 41.421875 45.53125 
Q 43.3125 49.21875 43.3125 52.78125 
Q 43.3125 58.59375 39.234375 62.25 
Q 35.15625 65.921875 28.609375 65.921875 
Q 23.96875 65.921875 18.8125 64.3125 
Q 13.671875 62.703125 7.8125 59.421875 
L 7.8125 69.390625 
Q 13.765625 71.78125 18.9375 73 
Q 24.125 74.21875 28.421875 74.21875 
Q 39.75 74.21875 46.484375 68.546875 
Q 53.21875 62.890625 53.21875 53.421875 
Q 53.21875 48.921875 51.53125 44.890625 
Q 49.859375 40.875 45.40625 35.40625 
Q 44.1875 33.984375 37.640625 27.21875 
Q 31.109375 20.453125 19.1875 8.296875 
z
" id="DejaVuSans-50"/>
      <path d="M 31.78125 66.40625 
Q 24.171875 66.40625 20.328125 58.90625 
Q 16.5 51.421875 16.5 36.375 
Q 16.5 21.390625 20.328125 13.890625 
Q 24.171875 6.390625 31.78125 6.390625 
Q 39.453125 6.390625 43.28125 13.890625 
Q 47.125 21.390625 47.125 36.375 
Q 47.125 51.421875 43.28125 58.90625 
Q 39.453125 66.40625 31.78125 66.40625 
z
M 31.78125 74.21875 
Q 44.046875 74.21875 50.515625 64.515625 
Q 56.984375 54.828125 56.984375 36.375 
Q 56.984375 17.96875 50.515625 8.265625 
Q 44.046875 -1.421875 31.78125 -1.421875 
Q 19.53125 -1.421875 13.0625 8.265625 
Q 6.59375 17.96875 6.59375 36.375 
Q 6.59375 54.828125 13.0625 64.515625 
Q 19.53125 74.21875 31.78125 74.21875 
z
" id="DejaVuSans-48"/>
      <path d="M 72.703125 32.078125 
Q 68.453125 32.078125 66.03125 28.46875 
Q 63.625 24.859375 63.625 18.40625 
Q 63.625 12.0625 66.03125 8.421875 
Q 68.453125 4.78125 72.703125 4.78125 
Q 76.859375 4.78125 79.265625 8.421875 
Q 81.6875 12.0625 81.6875 18.40625 
Q 81.6875 24.8125 79.265625 28.4375 
Q 76.859375 32.078125 72.703125 32.078125 
z
M 72.703125 38.28125 
Q 80.421875 38.28125 84.953125 32.90625 
Q 89.5 27.546875 89.5 18.40625 
Q 89.5 9.28125 84.9375 3.921875 
Q 80.375 -1.421875 72.703125 -1.421875 
Q 64.890625 -1.421875 60.34375 3.921875 
Q 55.8125 9.28125 55.8125 18.40625 
Q 55.8125 27.59375 60.375 32.9375 
Q 64.9375 38.28125 72.703125 38.28125 
z
M 22.3125 68.015625 
Q 18.109375 68.015625 15.6875 64.375 
Q 13.28125 60.75 13.28125 54.390625 
Q 13.28125 47.953125 15.671875 44.328125 
Q 18.0625 40.71875 22.3125 40.71875 
Q 26.5625 40.71875 28.96875 44.328125 
Q 31.390625 47.953125 31.390625 54.390625 
Q 31.390625 60.6875 28.953125 64.34375 
Q 26.515625 68.015625 22.3125 68.015625 
z
M 66.40625 74.21875 
L 74.21875 74.21875 
L 28.609375 -1.421875 
L 20.796875 -1.421875 
z
M 22.3125 74.21875 
Q 30.03125 74.21875 34.609375 68.875 
Q 39.203125 63.53125 39.203125 54.390625 
Q 39.203125 45.171875 34.640625 39.84375 
Q 30.078125 34.515625 22.3125 34.515625 
Q 14.546875 34.515625 10.03125 39.859375 
Q 5.515625 45.21875 5.515625 54.390625 
Q 5.515625 63.484375 10.046875 68.84375 
Q 14.59375 74.21875 22.3125 74.21875 
z
" id="DejaVuSans-37"/>
     </defs>
     <g style="fill:#555555;" transform="translate(79.8507 292.162967)scale(0.1 -0.1)">
      <use xlink:href="#DejaVuSans-45"/>
      <use x="36.083984" xlink:href="#DejaVuSans-50"/>
      <use x="99.707031" xlink:href="#DejaVuSans-48"/>
      <use x="163.330078" xlink:href="#DejaVuSans-37"/>
     </g>
    </g>
   </g>
   <g id="xtick_2">
    <g id="line2d_4">
     <path clip-path="url(#p5dd2747e57)" d="M 236.335135 168.421622 
" style="fill:none;stroke:#ffffff;stroke-linecap:square;stroke-width:0.8;"/>
    </g>
    <g id="line2d_5">
     <path d="M 137.672103 278.821635 
L 134.499242 280.93807 
" style="fill:none;stroke:#555555;stroke-linecap:square;stroke-width:0.8;"/>
    </g>
    <g id="text_3">
     <!-- -10% -->
     <defs>
      <path d="M 12.40625 8.296875 
L 28.515625 8.296875 
L 28.515625 63.921875 
L 10.984375 60.40625 
L 10.984375 69.390625 
L 28.421875 72.90625 
L 38.28125 72.90625 
L 38.28125 8.296875 
L 54.390625 8.296875 
L 54.390625 0 
L 12.40625 0 
z
" id="DejaVuSans-49"/>
     </defs>
     <g style="fill:#555555;" transform="translate(116.344916 301.0975)scale(0.1 -0.1)">
      <use xlink:href="#DejaVuSans-45"/>
      <use x="36.083984" xlink:href="#DejaVuSans-49"/>
      <use x="99.707031" xlink:href="#DejaVuSans-48"/>
      <use x="163.330078" xlink:href="#DejaVuSans-37"/>
     </g>
    </g>
   </g>
   <g id="xtick_3">
    <g id="line2d_6">
     <path clip-path="url(#p5dd2747e57)" d="M 236.335135 168.421622 
" style="fill:none;stroke:#ffffff;stroke-linecap:square;stroke-width:0.8;"/>
    </g>
    <g id="line2d_7">
     <path d="M 174.736433 287.762325 
L 171.608733 289.91267 
" style="fill:none;stroke:#555555;stroke-linecap:square;stroke-width:0.8;"/>
    </g>
    <g id="text_4">
     <!-- 0% -->
     <g style="fill:#555555;" transform="translate(158.407394 310.174789)scale(0.1 -0.1)">
      <use xlink:href="#DejaVuSans-48"/>
      <use x="63.623047" xlink:href="#DejaVuSans-37"/>
     </g>
    </g>
   </g>
   <g id="xtick_4">
    <g id="line2d_8">
     <path clip-path="url(#p5dd2747e57)" d="M 236.335135 168.421622 
" style="fill:none;stroke:#ffffff;stroke-linecap:square;stroke-width:0.8;"/>
    </g>
    <g id="line2d_9">
     <path d="M 212.396448 296.846707 
L 209.315778 299.031783 
" style="fill:none;stroke:#555555;stroke-linecap:square;stroke-width:0.8;"/>
    </g>
    <g id="text_5">
     <!-- 10% -->
     <g style="fill:#555555;" transform="translate(192.900659 319.398284)scale(0.1 -0.1)">
      <use xlink:href="#DejaVuSans-49"/>
      <use x="63.623047" xlink:href="#DejaVuSans-48"/>
      <use x="127.246094" xlink:href="#DejaVuSans-37"/>
     </g>
    </g>
   </g>
   <g id="xtick_5">
    <g id="line2d_10">
     <path clip-path="url(#p5dd2747e57)" d="M 236.335135 168.421622 
" style="fill:none;stroke:#ffffff;stroke-linecap:square;stroke-width:0.8;"/>
    </g>
    <g id="line2d_11">
     <path d="M 250.666627 306.078273 
L 247.634929 308.298929 
" style="fill:none;stroke:#555555;stroke-linecap:square;stroke-width:0.8;"/>
    </g>
    <g id="text_6">
     <!-- 20% -->
     <g style="fill:#555555;" transform="translate(231.186914 328.771544)scale(0.1 -0.1)">
      <use xlink:href="#DejaVuSans-50"/>
      <use x="63.623047" xlink:href="#DejaVuSans-48"/>
      <use x="127.246094" xlink:href="#DejaVuSans-37"/>
     </g>
    </g>
   </g>
  </g>
  <g id="axis3d_2">
   <g id="line2d_12">
    <path d="M 398.348434 228.180625 
L 283.263076 314.930875 
" style="fill:none;stroke:#ffffff;stroke-linecap:square;"/>
   </g>
   <g id="text_7">
    <!-- Shift -->
    <defs>
     <path d="M 53.515625 70.515625 
L 53.515625 60.890625 
Q 47.90625 63.578125 42.921875 64.890625 
Q 37.9375 66.21875 33.296875 66.21875 
Q 25.25 66.21875 20.875 63.09375 
Q 16.5 59.96875 16.5 54.203125 
Q 16.5 49.359375 19.40625 46.890625 
Q 22.3125 44.4375 30.421875 42.921875 
L 36.375 41.703125 
Q 47.40625 39.59375 52.65625 34.296875 
Q 57.90625 29 57.90625 20.125 
Q 57.90625 9.515625 50.796875 4.046875 
Q 43.703125 -1.421875 29.984375 -1.421875 
Q 24.8125 -1.421875 18.96875 -0.25 
Q 13.140625 0.921875 6.890625 3.21875 
L 6.890625 13.375 
Q 12.890625 10.015625 18.65625 8.296875 
Q 24.421875 6.59375 29.984375 6.59375 
Q 38.421875 6.59375 43.015625 9.90625 
Q 47.609375 13.234375 47.609375 19.390625 
Q 47.609375 24.75 44.3125 27.78125 
Q 41.015625 30.8125 33.5 32.328125 
L 27.484375 33.5 
Q 16.453125 35.6875 11.515625 40.375 
Q 6.59375 45.0625 6.59375 53.421875 
Q 6.59375 63.09375 13.40625 68.65625 
Q 20.21875 74.21875 32.171875 74.21875 
Q 37.3125 74.21875 42.625 73.28125 
Q 47.953125 72.359375 53.515625 70.515625 
z
" id="DejaVuSans-83"/>
     <path d="M 54.890625 33.015625 
L 54.890625 0 
L 45.90625 0 
L 45.90625 32.71875 
Q 45.90625 40.484375 42.875 44.328125 
Q 39.84375 48.1875 33.796875 48.1875 
Q 26.515625 48.1875 22.3125 43.546875 
Q 18.109375 38.921875 18.109375 30.90625 
L 18.109375 0 
L 9.078125 0 
L 9.078125 75.984375 
L 18.109375 75.984375 
L 18.109375 46.1875 
Q 21.34375 51.125 25.703125 53.5625 
Q 30.078125 56 35.796875 56 
Q 45.21875 56 50.046875 50.171875 
Q 54.890625 44.34375 54.890625 33.015625 
z
" id="DejaVuSans-104"/>
     <path d="M 9.421875 54.6875 
L 18.40625 54.6875 
L 18.40625 0 
L 9.421875 0 
z
M 9.421875 75.984375 
L 18.40625 75.984375 
L 18.40625 64.59375 
L 9.421875 64.59375 
z
" id="DejaVuSans-105"/>
     <path d="M 37.109375 75.984375 
L 37.109375 68.5 
L 28.515625 68.5 
Q 23.6875 68.5 21.796875 66.546875 
Q 19.921875 64.59375 19.921875 59.515625 
L 19.921875 54.6875 
L 34.71875 54.6875 
L 34.71875 47.703125 
L 19.921875 47.703125 
L 19.921875 0 
L 10.890625 0 
L 10.890625 47.703125 
L 2.296875 47.703125 
L 2.296875 54.6875 
L 10.890625 54.6875 
L 10.890625 58.5 
Q 10.890625 67.625 15.140625 71.796875 
Q 19.390625 75.984375 28.609375 75.984375 
z
" id="DejaVuSans-102"/>
     <path d="M 18.3125 70.21875 
L 18.3125 54.6875 
L 36.8125 54.6875 
L 36.8125 47.703125 
L 18.3125 47.703125 
L 18.3125 18.015625 
Q 18.3125 11.328125 20.140625 9.421875 
Q 21.96875 7.515625 27.59375 7.515625 
L 36.8125 7.515625 
L 36.8125 0 
L 27.59375 0 
Q 17.1875 0 13.234375 3.875 
Q 9.28125 7.765625 9.28125 18.015625 
L 9.28125 47.703125 
L 2.6875 47.703125 
L 2.6875 54.6875 
L 9.28125 54.6875 
L 9.28125 70.21875 
z
" id="DejaVuSans-116"/>
    </defs>
    <g style="fill:#555555;" transform="translate(360.794069 306.193172)rotate(-37.00864)scale(0.12 -0.12)">
     <use xlink:href="#DejaVuSans-83"/>
     <use x="63.476562" xlink:href="#DejaVuSans-104"/>
     <use x="126.855469" xlink:href="#DejaVuSans-105"/>
     <use x="154.638672" xlink:href="#DejaVuSans-102"/>
     <use x="189.828125" xlink:href="#DejaVuSans-116"/>
    </g>
   </g>
   <g id="Line3DCollection_2">
    <path d="M 69.008379 98.463794 
L 77.598724 257.787796 
L 291.13935 308.993815 
" style="fill:none;stroke:#ffffff;stroke-width:0.8;"/>
    <path d="M 93.457822 85.314611 
L 100.695676 243.191585 
L 312.333908 293.017558 
" style="fill:none;stroke:#ffffff;stroke-width:0.8;"/>
    <path d="M 117.233517 72.527777 
L 123.187971 228.97749 
L 332.948502 277.478473 
" style="fill:none;stroke:#ffffff;stroke-width:0.8;"/>
    <path d="M 140.362935 60.088518 
L 145.099047 215.130699 
L 353.006616 262.358857 
" style="fill:none;stroke:#ffffff;stroke-width:0.8;"/>
    <path d="M 162.872075 47.982852 
L 166.451145 201.637156 
L 372.530482 247.641953 
" style="fill:none;stroke:#ffffff;stroke-width:0.8;"/>
    <path d="M 184.785558 36.197537 
L 187.265386 188.483514 
L 391.541164 233.311881 
" style="fill:none;stroke:#ffffff;stroke-width:0.8;"/>
   </g>
   <g id="xtick_6">
    <g id="line2d_13">
     <path clip-path="url(#p5dd2747e57)" d="M 236.335135 168.421622 
" style="fill:none;stroke:#ffffff;stroke-linecap:square;stroke-width:0.8;"/>
    </g>
    <g id="line2d_14">
     <path d="M 289.352203 308.565265 
L 294.717638 309.851871 
" style="fill:none;stroke:#555555;stroke-linecap:square;stroke-width:0.8;"/>
    </g>
    <g id="text_8">
     <!-- 0% -->
     <g style="fill:#555555;" transform="translate(295.962351 328.681144)scale(0.1 -0.1)">
      <use xlink:href="#DejaVuSans-48"/>
      <use x="63.623047" xlink:href="#DejaVuSans-37"/>
     </g>
    </g>
   </g>
   <g id="xtick_7">
    <g id="line2d_15">
     <path clip-path="url(#p5dd2747e57)" d="M 236.335135 168.421622 
" style="fill:none;stroke:#ffffff;stroke-linecap:square;stroke-width:0.8;"/>
    </g>
    <g id="line2d_16">
     <path d="M 310.563766 292.600813 
L 315.878095 293.851965 
" style="fill:none;stroke:#555555;stroke-linecap:square;stroke-width:0.8;"/>
    </g>
    <g id="text_9">
     <!-- 10% -->
     <g style="fill:#555555;" transform="translate(313.790097 312.543821)scale(0.1 -0.1)">
      <use xlink:href="#DejaVuSans-49"/>
      <use x="63.623047" xlink:href="#DejaVuSans-48"/>
      <use x="127.246094" xlink:href="#DejaVuSans-37"/>
     </g>
    </g>
   </g>
   <g id="xtick_8">
    <g id="line2d_17">
     <path clip-path="url(#p5dd2747e57)" d="M 236.335135 168.421622 
" style="fill:none;stroke:#ffffff;stroke-linecap:square;stroke-width:0.8;"/>
    </g>
    <g id="line2d_18">
     <path d="M 331.195109 277.073052 
L 336.4591 278.290196 
" style="fill:none;stroke:#555555;stroke-linecap:square;stroke-width:0.8;"/>
    </g>
    <g id="text_10">
     <!-- 20% -->
     <g style="fill:#555555;" transform="translate(334.224438 296.847899)scale(0.1 -0.1)">
      <use xlink:href="#DejaVuSans-50"/>
      <use x="63.623047" xlink:href="#DejaVuSans-48"/>
      <use x="127.246094" xlink:href="#DejaVuSans-37"/>
     </g>
    </g>
   </g>
   <g id="xtick_9">
    <g id="line2d_19">
     <path clip-path="url(#p5dd2747e57)" d="M 236.335135 168.421622 
" style="fill:none;stroke:#ffffff;stroke-linecap:square;stroke-width:0.8;"/>
    </g>
    <g id="line2d_20">
     <path d="M 351.269719 261.964305 
L 356.484135 263.148808 
" style="fill:none;stroke:#555555;stroke-linecap:square;stroke-width:0.8;"/>
    </g>
    <g id="text_11">
     <!-- 30% -->
     <defs>
      <path d="M 40.578125 39.3125 
Q 47.65625 37.796875 51.625 33 
Q 55.609375 28.21875 55.609375 21.1875 
Q 55.609375 10.40625 48.1875 4.484375 
Q 40.765625 -1.421875 27.09375 -1.421875 
Q 22.515625 -1.421875 17.65625 -0.515625 
Q 12.796875 0.390625 7.625 2.203125 
L 7.625 11.71875 
Q 11.71875 9.328125 16.59375 8.109375 
Q 21.484375 6.890625 26.8125 6.890625 
Q 36.078125 6.890625 40.9375 10.546875 
Q 45.796875 14.203125 45.796875 21.1875 
Q 45.796875 27.640625 41.28125 31.265625 
Q 36.765625 34.90625 28.71875 34.90625 
L 20.21875 34.90625 
L 20.21875 43.015625 
L 29.109375 43.015625 
Q 36.375 43.015625 40.234375 45.921875 
Q 44.09375 48.828125 44.09375 54.296875 
Q 44.09375 59.90625 40.109375 62.90625 
Q 36.140625 65.921875 28.71875 65.921875 
Q 24.65625 65.921875 20.015625 65.03125 
Q 15.375 64.15625 9.8125 62.3125 
L 9.8125 71.09375 
Q 15.4375 72.65625 20.34375 73.4375 
Q 25.25 74.21875 29.59375 74.21875 
Q 40.828125 74.21875 47.359375 69.109375 
Q 53.90625 64.015625 53.90625 55.328125 
Q 53.90625 49.265625 50.4375 45.09375 
Q 46.96875 40.921875 40.578125 39.3125 
z
" id="DejaVuSans-51"/>
     </defs>
     <g style="fill:#555555;" transform="translate(354.107386 281.575511)scale(0.1 -0.1)">
      <use xlink:href="#DejaVuSans-51"/>
      <use x="63.623047" xlink:href="#DejaVuSans-48"/>
      <use x="127.246094" xlink:href="#DejaVuSans-37"/>
     </g>
    </g>
   </g>
   <g id="xtick_10">
    <g id="line2d_21">
     <path clip-path="url(#p5dd2747e57)" d="M 236.335135 168.421622 
" style="fill:none;stroke:#ffffff;stroke-linecap:square;stroke-width:0.8;"/>
    </g>
    <g id="line2d_22">
     <path d="M 370.80983 247.257837 
L 375.975426 248.410996 
" style="fill:none;stroke:#555555;stroke-linecap:square;stroke-width:0.8;"/>
    </g>
    <g id="text_12">
     <!-- 40% -->
     <defs>
      <path d="M 37.796875 64.3125 
L 12.890625 25.390625 
L 37.796875 25.390625 
z
M 35.203125 72.90625 
L 47.609375 72.90625 
L 47.609375 25.390625 
L 58.015625 25.390625 
L 58.015625 17.1875 
L 47.609375 17.1875 
L 47.609375 0 
L 37.796875 0 
L 37.796875 17.1875 
L 4.890625 17.1875 
L 4.890625 26.703125 
z
" id="DejaVuSans-52"/>
     </defs>
     <g style="fill:#555555;" transform="translate(373.46096 266.709743)scale(0.1 -0.1)">
      <use xlink:href="#DejaVuSans-52"/>
      <use x="63.623047" xlink:href="#DejaVuSans-48"/>
      <use x="127.246094" xlink:href="#DejaVuSans-37"/>
     </g>
    </g>
   </g>
   <g id="xtick_11">
    <g id="line2d_23">
     <path clip-path="url(#p5dd2747e57)" d="M 236.335135 168.421622 
" style="fill:none;stroke:#ffffff;stroke-linecap:square;stroke-width:0.8;"/>
    </g>
    <g id="line2d_24">
     <path d="M 389.836508 232.937794 
L 394.954034 234.060836 
" style="fill:none;stroke:#555555;stroke-linecap:square;stroke-width:0.8;"/>
    </g>
    <g id="text_13">
     <!-- 50% -->
     <defs>
      <path d="M 10.796875 72.90625 
L 49.515625 72.90625 
L 49.515625 64.59375 
L 19.828125 64.59375 
L 19.828125 46.734375 
Q 21.96875 47.46875 24.109375 47.828125 
Q 26.265625 48.1875 28.421875 48.1875 
Q 40.625 48.1875 47.75 41.5 
Q 54.890625 34.8125 54.890625 23.390625 
Q 54.890625 11.625 47.5625 5.09375 
Q 40.234375 -1.421875 26.90625 -1.421875 
Q 22.3125 -1.421875 17.546875 -0.640625 
Q 12.796875 0.140625 7.71875 1.703125 
L 7.71875 11.625 
Q 12.109375 9.234375 16.796875 8.0625 
Q 21.484375 6.890625 26.703125 6.890625 
Q 35.15625 6.890625 40.078125 11.328125 
Q 45.015625 15.765625 45.015625 23.390625 
Q 45.015625 31 40.078125 35.4375 
Q 35.15625 39.890625 26.703125 39.890625 
Q 22.75 39.890625 18.8125 39.015625 
Q 14.890625 38.140625 10.796875 36.28125 
z
" id="DejaVuSans-53"/>
     </defs>
     <g style="fill:#555555;" transform="translate(392.306024 252.234568)scale(0.1 -0.1)">
      <use xlink:href="#DejaVuSans-53"/>
      <use x="63.623047" xlink:href="#DejaVuSans-48"/>
      <use x="127.246094" xlink:href="#DejaVuSans-37"/>
     </g>
    </g>
   </g>
  </g>
  <g id="axis3d_3">
   <g id="line2d_25">
    <path d="M 398.348434 228.180625 
L 406.867833 71.811455 
" style="fill:none;stroke:#ffffff;stroke-linecap:square;"/>
   </g>
   <g id="text_14">
    <!-- Cost Increase -->
    <defs>
     <path d="M 64.40625 67.28125 
L 64.40625 56.890625 
Q 59.421875 61.53125 53.78125 63.8125 
Q 48.140625 66.109375 41.796875 66.109375 
Q 29.296875 66.109375 22.65625 58.46875 
Q 16.015625 50.828125 16.015625 36.375 
Q 16.015625 21.96875 22.65625 14.328125 
Q 29.296875 6.6875 41.796875 6.6875 
Q 48.140625 6.6875 53.78125 8.984375 
Q 59.421875 11.28125 64.40625 15.921875 
L 64.40625 5.609375 
Q 59.234375 2.09375 53.4375 0.328125 
Q 47.65625 -1.421875 41.21875 -1.421875 
Q 24.65625 -1.421875 15.125 8.703125 
Q 5.609375 18.84375 5.609375 36.375 
Q 5.609375 53.953125 15.125 64.078125 
Q 24.65625 74.21875 41.21875 74.21875 
Q 47.75 74.21875 53.53125 72.484375 
Q 59.328125 70.75 64.40625 67.28125 
z
" id="DejaVuSans-67"/>
     <path d="M 30.609375 48.390625 
Q 23.390625 48.390625 19.1875 42.75 
Q 14.984375 37.109375 14.984375 27.296875 
Q 14.984375 17.484375 19.15625 11.84375 
Q 23.34375 6.203125 30.609375 6.203125 
Q 37.796875 6.203125 41.984375 11.859375 
Q 46.1875 17.53125 46.1875 27.296875 
Q 46.1875 37.015625 41.984375 42.703125 
Q 37.796875 48.390625 30.609375 48.390625 
z
M 30.609375 56 
Q 42.328125 56 49.015625 48.375 
Q 55.71875 40.765625 55.71875 27.296875 
Q 55.71875 13.875 49.015625 6.21875 
Q 42.328125 -1.421875 30.609375 -1.421875 
Q 18.84375 -1.421875 12.171875 6.21875 
Q 5.515625 13.875 5.515625 27.296875 
Q 5.515625 40.765625 12.171875 48.375 
Q 18.84375 56 30.609375 56 
z
" id="DejaVuSans-111"/>
     <path id="DejaVuSans-32"/>
     <path d="M 9.8125 72.90625 
L 19.671875 72.90625 
L 19.671875 0 
L 9.8125 0 
z
" id="DejaVuSans-73"/>
     <path d="M 54.890625 33.015625 
L 54.890625 0 
L 45.90625 0 
L 45.90625 32.71875 
Q 45.90625 40.484375 42.875 44.328125 
Q 39.84375 48.1875 33.796875 48.1875 
Q 26.515625 48.1875 22.3125 43.546875 
Q 18.109375 38.921875 18.109375 30.90625 
L 18.109375 0 
L 9.078125 0 
L 9.078125 54.6875 
L 18.109375 54.6875 
L 18.109375 46.1875 
Q 21.34375 51.125 25.703125 53.5625 
Q 30.078125 56 35.796875 56 
Q 45.21875 56 50.046875 50.171875 
Q 54.890625 44.34375 54.890625 33.015625 
z
" id="DejaVuSans-110"/>
     <path d="M 48.78125 52.59375 
L 48.78125 44.1875 
Q 44.96875 46.296875 41.140625 47.34375 
Q 37.3125 48.390625 33.40625 48.390625 
Q 24.65625 48.390625 19.8125 42.84375 
Q 14.984375 37.3125 14.984375 27.296875 
Q 14.984375 17.28125 19.8125 11.734375 
Q 24.65625 6.203125 33.40625 6.203125 
Q 37.3125 6.203125 41.140625 7.25 
Q 44.96875 8.296875 48.78125 10.40625 
L 48.78125 2.09375 
Q 45.015625 0.34375 40.984375 -0.53125 
Q 36.96875 -1.421875 32.421875 -1.421875 
Q 20.0625 -1.421875 12.78125 6.34375 
Q 5.515625 14.109375 5.515625 27.296875 
Q 5.515625 40.671875 12.859375 48.328125 
Q 20.21875 56 33.015625 56 
Q 37.15625 56 41.109375 55.140625 
Q 45.0625 54.296875 48.78125 52.59375 
z
" id="DejaVuSans-99"/>
     <path d="M 41.109375 46.296875 
Q 39.59375 47.171875 37.8125 47.578125 
Q 36.03125 48 33.890625 48 
Q 26.265625 48 22.1875 43.046875 
Q 18.109375 38.09375 18.109375 28.8125 
L 18.109375 0 
L 9.078125 0 
L 9.078125 54.6875 
L 18.109375 54.6875 
L 18.109375 46.1875 
Q 20.953125 51.171875 25.484375 53.578125 
Q 30.03125 56 36.53125 56 
Q 37.453125 56 38.578125 55.875 
Q 39.703125 55.765625 41.0625 55.515625 
z
" id="DejaVuSans-114"/>
     <path d="M 56.203125 29.59375 
L 56.203125 25.203125 
L 14.890625 25.203125 
Q 15.484375 15.921875 20.484375 11.0625 
Q 25.484375 6.203125 34.421875 6.203125 
Q 39.59375 6.203125 44.453125 7.46875 
Q 49.3125 8.734375 54.109375 11.28125 
L 54.109375 2.78125 
Q 49.265625 0.734375 44.1875 -0.34375 
Q 39.109375 -1.421875 33.890625 -1.421875 
Q 20.796875 -1.421875 13.15625 6.1875 
Q 5.515625 13.8125 5.515625 26.8125 
Q 5.515625 40.234375 12.765625 48.109375 
Q 20.015625 56 32.328125 56 
Q 43.359375 56 49.78125 48.890625 
Q 56.203125 41.796875 56.203125 29.59375 
z
M 47.21875 32.234375 
Q 47.125 39.59375 43.09375 43.984375 
Q 39.0625 48.390625 32.421875 48.390625 
Q 24.90625 48.390625 20.390625 44.140625 
Q 15.875 39.890625 15.1875 32.171875 
z
" id="DejaVuSans-101"/>
    </defs>
    <g style="fill:#555555;" transform="translate(444.54344 188.83909)rotate(-86.88146)scale(0.12 -0.12)">
     <use xlink:href="#DejaVuSans-67"/>
     <use x="69.824219" xlink:href="#DejaVuSans-111"/>
     <use x="131.005859" xlink:href="#DejaVuSans-115"/>
     <use x="183.105469" xlink:href="#DejaVuSans-116"/>
     <use x="222.314453" xlink:href="#DejaVuSans-32"/>
     <use x="254.101562" xlink:href="#DejaVuSans-73"/>
     <use x="283.59375" xlink:href="#DejaVuSans-110"/>
     <use x="346.972656" xlink:href="#DejaVuSans-99"/>
     <use x="401.953125" xlink:href="#DejaVuSans-114"/>
     <use x="443.035156" xlink:href="#DejaVuSans-101"/>
     <use x="504.558594" xlink:href="#DejaVuSans-97"/>
     <use x="565.837891" xlink:href="#DejaVuSans-115"/>
     <use x="617.9375" xlink:href="#DejaVuSans-101"/>
    </g>
   </g>
   <g id="Line3DCollection_3">
    <path d="M 398.510472 225.206507 
L 194.684195 180.876724 
L 68.84993 260.172102 
" style="fill:none;stroke:#ffffff;stroke-width:0.8;"/>
    <path d="M 400.082685 196.349343 
L 194.297326 152.816798 
L 67.172546 230.710832 
" style="fill:none;stroke:#ffffff;stroke-width:0.8;"/>
    <path d="M 401.685681 166.927188 
L 193.903202 124.230723 
L 65.461223 200.653476 
" style="fill:none;stroke:#ffffff;stroke-width:0.8;"/>
    <path d="M 403.320371 136.923286 
L 193.501619 95.10356 
L 63.714921 169.981758 
" style="fill:none;stroke:#ffffff;stroke-width:0.8;"/>
    <path d="M 404.987706 106.320211 
L 193.092361 65.4198 
L 61.932557 138.676648 
" style="fill:none;stroke:#ffffff;stroke-width:0.8;"/>
    <path d="M 406.688674 75.099833 
L 192.675208 35.163334 
L 60.113002 106.718321 
" style="fill:none;stroke:#ffffff;stroke-width:0.8;"/>
   </g>
   <g id="xtick_12">
    <g id="line2d_26">
     <path clip-path="url(#p5dd2747e57)" d="M 236.335135 168.421622 
" style="fill:none;stroke:#ffffff;stroke-linecap:square;stroke-width:0.8;"/>
    </g>
    <g id="line2d_27">
     <path d="M 396.809833 224.836638 
L 401.915288 225.947014 
" style="fill:none;stroke:#555555;stroke-linecap:square;stroke-width:0.8;"/>
    </g>
    <g id="text_15">
     <!-- 0% -->
     <g style="fill:#555555;" transform="translate(409.014584 230.849506)scale(0.1 -0.1)">
      <use xlink:href="#DejaVuSans-48"/>
      <use x="63.623047" xlink:href="#DejaVuSans-37"/>
     </g>
    </g>
   </g>
   <g id="xtick_13">
    <g id="line2d_28">
     <path clip-path="url(#p5dd2747e57)" d="M 236.335135 168.421622 
" style="fill:none;stroke:#ffffff;stroke-linecap:square;stroke-width:0.8;"/>
    </g>
    <g id="line2d_29">
     <path d="M 398.365015 195.985981 
L 403.521633 197.07683 
" style="fill:none;stroke:#555555;stroke-linecap:square;stroke-width:0.8;"/>
    </g>
    <g id="text_16">
     <!-- 50% -->
     <g style="fill:#555555;" transform="translate(407.58104 202.026771)scale(0.1 -0.1)">
      <use xlink:href="#DejaVuSans-53"/>
      <use x="63.623047" xlink:href="#DejaVuSans-48"/>
      <use x="127.246094" xlink:href="#DejaVuSans-37"/>
     </g>
    </g>
   </g>
   <g id="xtick_14">
    <g id="line2d_30">
     <path clip-path="url(#p5dd2747e57)" d="M 236.335135 168.421622 
" style="fill:none;stroke:#ffffff;stroke-linecap:square;stroke-width:0.8;"/>
    </g>
    <g id="line2d_31">
     <path d="M 399.950635 166.57066 
L 405.159451 167.641 
" style="fill:none;stroke:#555555;stroke-linecap:square;stroke-width:0.8;"/>
    </g>
    <g id="text_17">
     <!-- 100% -->
     <g style="fill:#555555;" transform="translate(406.18165 172.640772)scale(0.1 -0.1)">
      <use xlink:href="#DejaVuSans-49"/>
      <use x="63.623047" xlink:href="#DejaVuSans-48"/>
      <use x="127.246094" xlink:href="#DejaVuSans-48"/>
      <use x="190.869141" xlink:href="#DejaVuSans-37"/>
     </g>
    </g>
   </g>
   <g id="xtick_15">
    <g id="line2d_32">
     <path clip-path="url(#p5dd2747e57)" d="M 236.335135 168.421622 
" style="fill:none;stroke:#ffffff;stroke-linecap:square;stroke-width:0.8;"/>
    </g>
    <g id="line2d_33">
     <path d="M 401.567596 136.573934 
L 406.829676 137.622738 
" style="fill:none;stroke:#555555;stroke-linecap:square;stroke-width:0.8;"/>
    </g>
    <g id="text_18">
     <!-- 150% -->
     <g style="fill:#555555;" transform="translate(407.998676 142.674836)scale(0.1 -0.1)">
      <use xlink:href="#DejaVuSans-49"/>
      <use x="63.623047" xlink:href="#DejaVuSans-53"/>
      <use x="127.246094" xlink:href="#DejaVuSans-48"/>
      <use x="190.869141" xlink:href="#DejaVuSans-37"/>
     </g>
    </g>
   </g>
   <g id="xtick_16">
    <g id="line2d_34">
     <path clip-path="url(#p5dd2747e57)" d="M 236.335135 168.421622 
" style="fill:none;stroke:#ffffff;stroke-linecap:square;stroke-width:0.8;"/>
    </g>
    <g id="line2d_35">
     <path d="M 403.216836 105.978394 
L 408.533278 107.004583 
" style="fill:none;stroke:#555555;stroke-linecap:square;stroke-width:0.8;"/>
    </g>
    <g id="text_19">
     <!-- 200% -->
     <g style="fill:#555555;" transform="translate(409.851918 112.111625)scale(0.1 -0.1)">
      <use xlink:href="#DejaVuSans-50"/>
      <use x="63.623047" xlink:href="#DejaVuSans-48"/>
      <use x="127.246094" xlink:href="#DejaVuSans-48"/>
      <use x="190.869141" xlink:href="#DejaVuSans-37"/>
     </g>
    </g>
   </g>
   <g id="xtick_17">
    <g id="line2d_36">
     <path clip-path="url(#p5dd2747e57)" d="M 236.335135 168.421622 
" style="fill:none;stroke:#ffffff;stroke-linecap:square;stroke-width:0.8;"/>
    </g>
    <g id="line2d_37">
     <path d="M 404.89933 74.765928 
L 410.27127 75.768372 
" style="fill:none;stroke:#555555;stroke-linecap:square;stroke-width:0.8;"/>
    </g>
    <g id="text_20">
     <!-- 250% -->
     <g style="fill:#555555;" transform="translate(411.74247 80.9331)scale(0.1 -0.1)">
      <use xlink:href="#DejaVuSans-50"/>
      <use x="63.623047" xlink:href="#DejaVuSans-53"/>
      <use x="127.246094" xlink:href="#DejaVuSans-48"/>
      <use x="190.869141" xlink:href="#DejaVuSans-37"/>
     </g>
    </g>
   </g>
  </g>
  <g id="axes_1">
   <g id="line2d_38">
    <defs>
     <path d="M 0 1.5 
C 0.397805 1.5 0.77937 1.341951 1.06066 1.06066 
C 1.341951 0.77937 1.5 0.397805 1.5 0 
C 1.5 -0.397805 1.341951 -0.77937 1.06066 -1.06066 
C 0.77937 -1.341951 0.397805 -1.5 0 -1.5 
C -0.397805 -1.5 -0.77937 -1.341951 -1.06066 -1.06066 
C -1.341951 -0.77937 -1.5 -0.397805 -1.5 0 
C -1.5 0.397805 -1.341951 0.77937 -1.06066 1.06066 
C -0.77937 1.341951 -0.397805 1.5 0 1.5 
z
" id="mfdbdaa5645" style="stroke:#6fa8de;stroke-opacity:0.8;"/>
    </defs>
    <g clip-path="url(#p5dd2747e57)">
     <use style="fill:#6fa8de;fill-opacity:0.8;stroke:#6fa8de;stroke-opacity:0.8;" x="181.884354" xlink:href="#mfdbdaa5645" y="279.740136"/>
    </g>
   </g>
   <g id="Poly3DCollection_1">
    <path clip-path="url(#p5dd2747e57)" d="M 188.640263 144.814213 
L 216.695368 148.409313 
L 199.198486 145.313259 
z
" style="fill:#3b5976;fill-opacity:0.8;"/>
    <path clip-path="url(#p5dd2747e57)" d="M 234.329251 151.318799 
L 216.695368 148.409313 
L 206.238973 146.943976 
z
" style="fill:#3a5875;fill-opacity:0.8;"/>
    <path clip-path="url(#p5dd2747e57)" d="M 206.238973 146.943976 
L 216.695368 148.409313 
L 188.640263 144.814213 
z
" style="fill:#3d5c7a;fill-opacity:0.8;"/>
    <path clip-path="url(#p5dd2747e57)" d="M 206.238973 146.943976 
L 223.987885 148.964595 
L 234.329251 151.318799 
z
" style="fill:#3c5b78;fill-opacity:0.8;"/>
    <path clip-path="url(#p5dd2747e57)" d="M 252.105339 154.06207 
L 234.329251 151.318799 
L 241.89132 150.801868 
z
" style="fill:#395672;fill-opacity:0.8;"/>
    <path clip-path="url(#p5dd2747e57)" d="M 206.238973 146.943976 
L 188.640263 144.814213 
L 195.548568 142.27529 
z
" style="fill:#3a5773;fill-opacity:0.8;"/>
    <path clip-path="url(#p5dd2747e57)" d="M 241.89132 150.801868 
L 234.329251 151.318799 
L 223.987885 148.964595 
z
" style="fill:#3d5c79;fill-opacity:0.8;"/>
    <path clip-path="url(#p5dd2747e57)" d="M 241.89132 150.801868 
L 270.028419 156.663392 
L 252.105339 154.06207 
z
" style="fill:#3a5773;fill-opacity:0.8;"/>
    <path clip-path="url(#p5dd2747e57)" d="M 195.548568 142.27529 
L 188.640263 144.814213 
L 177.838009 141.257318 
z
" style="fill:#3d5d7b;fill-opacity:0.8;"/>
    <path clip-path="url(#p5dd2747e57)" d="M 195.548568 142.27529 
L 223.987885 148.964595 
L 206.238973 146.943976 
z
" style="fill:#3a5874;fill-opacity:0.8;"/>
    <path clip-path="url(#p5dd2747e57)" d="M 259.954438 152.511304 
L 270.028419 156.663392 
L 241.89132 150.801868 
z
" style="fill:#3b5976;fill-opacity:0.8;"/>
    <path clip-path="url(#p5dd2747e57)" d="M 213.4252 143.27399 
L 241.89132 150.801868 
L 223.987885 148.964595 
z
" style="fill:#3a5773;fill-opacity:0.8;"/>
    <path clip-path="url(#p5dd2747e57)" d="M 288.102883 159.14227 
L 270.028419 156.663392 
L 278.182021 154.087445 
z
" style="fill:#395671;fill-opacity:0.8;"/>
    <path clip-path="url(#p5dd2747e57)" d="M 195.548568 142.27529 
L 213.4252 143.27399 
L 223.987885 148.964595 
z
" style="fill:#3b5a77;fill-opacity:0.8;"/>
    <path clip-path="url(#p5dd2747e57)" d="M 195.548568 142.27529 
L 177.838009 141.257318 
L 166.78777 136.126557 
z
" style="fill:#3c5b78;fill-opacity:0.8;"/>
    <path clip-path="url(#p5dd2747e57)" d="M 278.182021 154.087445 
L 270.028419 156.663392 
L 259.954438 152.511304 
z
" style="fill:#3b5a77;fill-opacity:0.8;"/>
    <path clip-path="url(#p5dd2747e57)" d="M 288.102883 159.14227 
L 278.182021 154.087445 
L 306.332668 161.521681 
z
" style="fill:#395672;fill-opacity:0.8;"/>
    <path clip-path="url(#p5dd2747e57)" d="M 231.470567 144.126796 
L 241.89132 150.801868 
L 213.4252 143.27399 
z
" style="fill:#3b5976;fill-opacity:0.8;"/>
    <path clip-path="url(#p5dd2747e57)" d="M 241.89132 150.801868 
L 249.689915 144.819715 
L 259.954438 152.511304 
z
" style="fill:#395672;fill-opacity:0.8;"/>
    <path clip-path="url(#p5dd2747e57)" d="M 166.78777 136.126557 
L 184.610789 135.925281 
L 195.548568 142.27529 
z
" style="fill:#3e5d7b;fill-opacity:0.8;"/>
    <path clip-path="url(#p5dd2747e57)" d="M 213.4252 143.27399 
L 195.548568 142.27529 
L 202.618039 135.803855 
z
" style="fill:#3a5875;fill-opacity:0.8;"/>
    <path clip-path="url(#p5dd2747e57)" d="M 306.332668 161.521681 
L 278.182021 154.087445 
L 296.578565 155.55058 
z
" style="fill:#3a5875;fill-opacity:0.8;"/>
    <path clip-path="url(#p5dd2747e57)" d="M 231.470567 144.126796 
L 249.689915 144.819715 
L 241.89132 150.801868 
z
" style="fill:#3b5a77;fill-opacity:0.8;"/>
    <path clip-path="url(#p5dd2747e57)" d="M 324.721791 163.80588 
L 306.332668 161.521681 
L 315.147985 156.928503 
z
" style="fill:#385570;fill-opacity:0.8;"/>
    <path clip-path="url(#p5dd2747e57)" d="M 249.689915 144.819715 
L 278.182021 154.087445 
L 259.954438 152.511304 
z
" style="fill:#395672;fill-opacity:0.8;"/>
    <path clip-path="url(#p5dd2747e57)" d="M 202.618039 135.803855 
L 195.548568 142.27529 
L 184.610789 135.925281 
z
" style="fill:#3d5d7b;fill-opacity:0.8;"/>
    <path clip-path="url(#p5dd2747e57)" d="M 231.470567 144.126796 
L 213.4252 143.27399 
L 202.618039 135.803855 
z
" style="fill:#3b5975;fill-opacity:0.8;"/>
    <path clip-path="url(#p5dd2747e57)" d="M 315.147985 156.928503 
L 306.332668 161.521681 
L 296.578565 155.55058 
z
" style="fill:#3b5975;fill-opacity:0.8;"/>
    <path clip-path="url(#p5dd2747e57)" d="M 343.274151 166.001889 
L 324.721791 163.80588 
L 315.147985 156.928503 
z
" style="fill:#385571;fill-opacity:0.8;"/>
    <path clip-path="url(#p5dd2747e57)" d="M 166.78777 136.126557 
L 155.435119 128.218639 
L 184.610789 135.925281 
z
" style="fill:#3c5b79;fill-opacity:0.8;"/>
    <path clip-path="url(#p5dd2747e57)" d="M 268.0885 145.380501 
L 278.182021 154.087445 
L 249.689915 144.819715 
z
" style="fill:#3a5875;fill-opacity:0.8;"/>
    <path clip-path="url(#p5dd2747e57)" d="M 296.578565 155.55058 
L 278.182021 154.087445 
L 286.671284 145.82052 
z
" style="fill:#385571;fill-opacity:0.8;"/>
    <path clip-path="url(#p5dd2747e57)" d="M 220.809787 135.54135 
L 249.689915 144.819715 
L 231.470567 144.126796 
z
" style="fill:#3a5875;fill-opacity:0.8;"/>
    <path clip-path="url(#p5dd2747e57)" d="M 202.618039 135.803855 
L 220.809787 135.54135 
L 231.470567 144.126796 
z
" style="fill:#3c5b78;fill-opacity:0.8;"/>
    <path clip-path="url(#p5dd2747e57)" d="M 333.895042 158.203955 
L 343.274151 166.001889 
L 315.147985 156.928503 
z
" style="fill:#3a5773;fill-opacity:0.8;"/>
    <path clip-path="url(#p5dd2747e57)" d="M 202.618039 135.803855 
L 184.610789 135.925281 
L 173.397262 127.678703 
z
" style="fill:#3c5b78;fill-opacity:0.8;"/>
    <path clip-path="url(#p5dd2747e57)" d="M 184.610789 135.925281 
L 155.435119 128.218639 
L 173.397262 127.678703 
z
" style="fill:#3d5c79;fill-opacity:0.8;"/>
    <path clip-path="url(#p5dd2747e57)" d="M 352.823444 159.40079 
L 361.992831 168.134237 
L 343.274151 166.001889 
z
" style="fill:#38546f;fill-opacity:0.8;"/>
    <path clip-path="url(#p5dd2747e57)" d="M 286.671284 145.82052 
L 278.182021 154.087445 
L 268.0885 145.380501 
z
" style="fill:#3b5975;fill-opacity:0.8;"/>
    <path clip-path="url(#p5dd2747e57)" d="M 296.578565 155.55058 
L 286.671284 145.82052 
L 315.147985 156.928503 
z
" style="fill:#395671;fill-opacity:0.8;"/>
    <path clip-path="url(#p5dd2747e57)" d="M 352.823444 159.40079 
L 343.274151 166.001889 
L 333.895042 158.203955 
z
" style="fill:#3a5774;fill-opacity:0.8;"/>
    <path clip-path="url(#p5dd2747e57)" d="M 239.191457 135.096427 
L 249.689915 144.819715 
L 220.809787 135.54135 
z
" style="fill:#3c5a77;fill-opacity:0.8;"/>
    <path clip-path="url(#p5dd2747e57)" d="M 380.881763 170.198596 
L 361.992831 168.134237 
L 371.937253 160.523568 
z
" style="fill:#38546f;fill-opacity:0.8;"/>
    <path clip-path="url(#p5dd2747e57)" d="M 268.0885 145.380501 
L 249.689915 144.819715 
L 257.769061 134.503266 
z
" style="fill:#395773;fill-opacity:0.8;"/>
    <path clip-path="url(#p5dd2747e57)" d="M 202.618039 135.803855 
L 173.397262 127.678703 
L 191.540912 126.522969 
z
" style="fill:#3d5c7a;fill-opacity:0.8;"/>
    <path clip-path="url(#p5dd2747e57)" d="M 209.885376 125.372576 
L 220.809787 135.54135 
L 202.618039 135.803855 
z
" style="fill:#3b5976;fill-opacity:0.8;"/>
    <path clip-path="url(#p5dd2747e57)" d="M 315.147985 156.928503 
L 286.671284 145.82052 
L 305.443686 146.123453 
z
" style="fill:#3a5774;fill-opacity:0.8;"/>
    <path clip-path="url(#p5dd2747e57)" d="M 361.992831 168.134237 
L 352.823444 159.40079 
L 371.937253 160.523568 
z
" style="fill:#395773;fill-opacity:0.8;"/>
    <path clip-path="url(#p5dd2747e57)" d="M 257.769061 134.503266 
L 249.689915 144.819715 
L 239.191457 135.096427 
z
" style="fill:#3c5a78;fill-opacity:0.8;"/>
    <path clip-path="url(#p5dd2747e57)" d="M 315.147985 156.928503 
L 324.410073 146.327091 
L 333.895042 158.203955 
z
" style="fill:#385570;fill-opacity:0.8;"/>
    <path clip-path="url(#p5dd2747e57)" d="M 173.397262 127.678703 
L 155.435119 128.218639 
L 161.907221 118.630217 
z
" style="fill:#3c5b79;fill-opacity:0.8;"/>
    <path clip-path="url(#p5dd2747e57)" d="M 191.540912 126.522969 
L 209.885376 125.372576 
L 202.618039 135.803855 
z
" style="fill:#3d5c7a;fill-opacity:0.8;"/>
    <path clip-path="url(#p5dd2747e57)" d="M 161.907221 118.630217 
L 155.435119 128.218639 
L 143.824986 120.259945 
z
" style="fill:#3f5f7e;fill-opacity:0.8;"/>
    <path clip-path="url(#p5dd2747e57)" d="M 315.147985 156.928503 
L 305.443686 146.123453 
L 324.410073 146.327091 
z
" style="fill:#3a5874;fill-opacity:0.8;"/>
    <path clip-path="url(#p5dd2747e57)" d="M 276.548767 133.729808 
L 286.671284 145.82052 
L 268.0885 145.380501 
z
" style="fill:#395672;fill-opacity:0.8;"/>
    <path clip-path="url(#p5dd2747e57)" d="M 333.895042 158.203955 
L 324.410073 146.327091 
L 352.823444 159.40079 
z
" style="fill:#385570;fill-opacity:0.8;"/>
    <path clip-path="url(#p5dd2747e57)" d="M 191.540912 126.522969 
L 173.397262 127.678703 
L 161.907221 118.630217 
z
" style="fill:#3d5d7b;fill-opacity:0.8;"/>
    <path clip-path="url(#p5dd2747e57)" d="M 220.809787 135.54135 
L 228.433612 124.20309 
L 239.191457 135.096427 
z
" style="fill:#3b5976;fill-opacity:0.8;"/>
    <path clip-path="url(#p5dd2747e57)" d="M 268.0885 145.380501 
L 257.769061 134.503266 
L 276.548767 133.729808 
z
" style="fill:#3b5a77;fill-opacity:0.8;"/>
    <path clip-path="url(#p5dd2747e57)" d="M 305.443686 146.123453 
L 286.671284 145.82052 
L 276.548767 133.729808 
z
" style="fill:#395773;fill-opacity:0.8;"/>
    <path clip-path="url(#p5dd2747e57)" d="M 209.885376 125.372576 
L 228.433612 124.20309 
L 220.809787 135.54135 
z
" style="fill:#3c5c79;fill-opacity:0.8;"/>
    <path clip-path="url(#p5dd2747e57)" d="M 228.433612 124.20309 
L 257.769061 134.503266 
L 239.191457 135.096427 
z
" style="fill:#3b5a77;fill-opacity:0.8;"/>
    <path clip-path="url(#p5dd2747e57)" d="M 371.937253 160.523568 
L 352.823444 159.40079 
L 343.576508 146.397162 
z
" style="fill:#385570;fill-opacity:0.8;"/>
    <path clip-path="url(#p5dd2747e57)" d="M 352.823444 159.40079 
L 324.410073 146.327091 
L 343.576508 146.397162 
z
" style="fill:#395772;fill-opacity:0.8;"/>
    <path clip-path="url(#p5dd2747e57)" d="M 143.824986 120.259945 
L 132.159824 118.462808 
L 161.907221 118.630217 
z
" style="fill:#486d90;fill-opacity:0.8;"/>
    <path clip-path="url(#p5dd2747e57)" d="M 180.19071 116.704389 
L 209.885376 125.372576 
L 191.540912 126.522969 
z
" style="fill:#3d5c7a;fill-opacity:0.8;"/>
    <path clip-path="url(#p5dd2747e57)" d="M 161.907221 118.630217 
L 180.19071 116.704389 
L 191.540912 126.522969 
z
" style="fill:#3e5e7c;fill-opacity:0.8;"/>
    <path clip-path="url(#p5dd2747e57)" d="M 90.462934 257.733375 
L 108.463205 262.095287 
L 99.096392 185.494746 
z
" style="fill:#6599ca;fill-opacity:0.8;"/>
    <path clip-path="url(#p5dd2747e57)" d="M 324.410073 146.327091 
L 305.443686 146.123453 
L 295.536158 132.821919 
z
" style="fill:#395672;fill-opacity:0.8;"/>
    <path clip-path="url(#p5dd2747e57)" d="M 276.548767 133.729808 
L 295.536158 132.821919 
L 305.443686 146.123453 
z
" style="fill:#3a5875;fill-opacity:0.8;"/>
    <path clip-path="url(#p5dd2747e57)" d="M 257.769061 134.503266 
L 247.191582 122.324738 
L 276.548767 133.729808 
z
" style="fill:#3b5976;fill-opacity:0.8;"/>
    <path clip-path="url(#p5dd2747e57)" d="M 228.433612 124.20309 
L 247.191582 122.324738 
L 257.769061 134.503266 
z
" style="fill:#3c5b79;fill-opacity:0.8;"/>
    <path clip-path="url(#p5dd2747e57)" d="M 343.576508 146.397162 
L 362.947219 146.36708 
L 371.937253 160.523568 
z
" style="fill:#395672;fill-opacity:0.8;"/>
    <path clip-path="url(#p5dd2747e57)" d="M 132.159824 118.462808 
L 150.325216 115.97199 
L 161.907221 118.630217 
z
" style="fill:#486d90;fill-opacity:0.8;"/>
    <path clip-path="url(#p5dd2747e57)" d="M 117.2511 185.761569 
L 108.463205 262.095287 
L 126.603397 266.472725 
z
" style="fill:#6599ca;fill-opacity:0.8;"/>
    <path clip-path="url(#p5dd2747e57)" d="M 198.682823 114.385289 
L 228.433612 124.20309 
L 209.885376 125.372576 
z
" style="fill:#3c5b78;fill-opacity:0.8;"/>
    <path clip-path="url(#p5dd2747e57)" d="M 180.19071 116.704389 
L 198.682823 114.385289 
L 209.885376 125.372576 
z
" style="fill:#3e5e7c;fill-opacity:0.8;"/>
    <path clip-path="url(#p5dd2747e57)" d="M 99.096392 185.494746 
L 108.463205 262.095287 
L 117.2511 185.761569 
z
" style="fill:#669bcc;fill-opacity:0.8;"/>
    <path clip-path="url(#p5dd2747e57)" d="M 180.19071 116.704389 
L 161.907221 118.630217 
L 168.703213 113.147202 
z
" style="fill:#45698a;fill-opacity:0.8;"/>
    <path clip-path="url(#p5dd2747e57)" d="M 314.738164 131.733005 
L 324.410073 146.327091 
L 295.536158 132.821919 
z
" style="fill:#3a5874;fill-opacity:0.8;"/>
    <path clip-path="url(#p5dd2747e57)" d="M 132.159824 118.462808 
L 120.574663 124.7222 
L 150.325216 115.97199 
z
" style="fill:#669bcc;fill-opacity:0.8;"/>
    <path clip-path="url(#p5dd2747e57)" d="M 343.576508 146.397162 
L 324.410073 146.327091 
L 334.160171 130.505765 
z
" style="fill:#385571;fill-opacity:0.8;"/>
    <path clip-path="url(#p5dd2747e57)" d="M 168.703213 113.147202 
L 161.907221 118.630217 
L 150.325216 115.97199 
z
" style="fill:#496e92;fill-opacity:0.8;"/>
    <path clip-path="url(#p5dd2747e57)" d="M 247.191582 122.324738 
L 266.170582 120.258395 
L 276.548767 133.729808 
z
" style="fill:#3c5b78;fill-opacity:0.8;"/>
    <path clip-path="url(#p5dd2747e57)" d="M 144.885757 270.874084 
L 154.15193 186.832098 
L 126.603397 266.472725 
z
" style="fill:#6599ca;fill-opacity:0.8;"/>
    <path clip-path="url(#p5dd2747e57)" d="M 198.682823 114.385289 
L 180.19071 116.704389 
L 168.703213 113.147202 
z
" style="fill:#466a8c;fill-opacity:0.8;"/>
    <path clip-path="url(#p5dd2747e57)" d="M 295.536158 132.821919 
L 276.548767 133.729808 
L 285.37802 117.97653 
z
" style="fill:#3a5874;fill-opacity:0.8;"/>
    <path clip-path="url(#p5dd2747e57)" d="M 217.397208 112.186875 
L 228.433612 124.20309 
L 198.682823 114.385289 
z
" style="fill:#3d5c7a;fill-opacity:0.8;"/>
    <path clip-path="url(#p5dd2747e57)" d="M 334.160171 130.505765 
L 324.410073 146.327091 
L 314.738164 131.733005 
z
" style="fill:#3a5875;fill-opacity:0.8;"/>
    <path clip-path="url(#p5dd2747e57)" d="M 126.603397 266.472725 
L 135.603097 186.209795 
L 117.2511 185.761569 
z
" style="fill:#669bcc;fill-opacity:0.8;"/>
    <path clip-path="url(#p5dd2747e57)" d="M 334.160171 130.505765 
L 362.947219 146.36708 
L 343.576508 146.397162 
z
" style="fill:#395671;fill-opacity:0.8;"/>
    <path clip-path="url(#p5dd2747e57)" d="M 150.325216 115.97199 
L 120.574663 124.7222 
L 138.811632 122.699668 
z
" style="fill:#689dd0;fill-opacity:0.8;"/>
    <path clip-path="url(#p5dd2747e57)" d="M 236.335137 110.143158 
L 247.191582 122.324738 
L 228.433612 124.20309 
z
" style="fill:#3d5c79;fill-opacity:0.8;"/>
    <path clip-path="url(#p5dd2747e57)" d="M 144.885757 270.874084 
L 163.312014 275.293591 
L 154.15193 186.832098 
z
" style="fill:#6599ca;fill-opacity:0.8;"/>
    <path clip-path="url(#p5dd2747e57)" d="M 109.393651 144.719112 
L 99.096392 185.494746 
L 127.613611 142.877828 
z
" style="fill:#699fd2;fill-opacity:0.8;"/>
    <path clip-path="url(#p5dd2747e57)" d="M 285.37802 117.97653 
L 276.548767 133.729808 
L 266.170582 120.258395 
z
" style="fill:#3c5b79;fill-opacity:0.8;"/>
    <path clip-path="url(#p5dd2747e57)" d="M 168.703213 113.147202 
L 150.325216 115.97199 
L 138.811632 122.699668 
z
" style="fill:#689dcf;fill-opacity:0.8;"/>
    <path clip-path="url(#p5dd2747e57)" d="M 127.613611 142.877828 
L 99.096392 185.494746 
L 117.2511 185.761569 
z
" style="fill:#689dd0;fill-opacity:0.8;"/>
    <path clip-path="url(#p5dd2747e57)" d="M 127.613611 142.877828 
L 120.574663 124.7222 
L 109.393651 144.719112 
z
" style="fill:#6ea7dc;fill-opacity:0.8;"/>
    <path clip-path="url(#p5dd2747e57)" d="M 314.738164 131.733005 
L 295.536158 132.821919 
L 285.37802 117.97653 
z
" style="fill:#3a5874;fill-opacity:0.8;"/>
    <path clip-path="url(#p5dd2747e57)" d="M 228.433612 124.20309 
L 217.397208 112.186875 
L 236.335137 110.143158 
z
" style="fill:#3d5c79;fill-opacity:0.8;"/>
    <path clip-path="url(#p5dd2747e57)" d="M 154.15193 186.832098 
L 135.603097 186.209795 
L 126.603397 266.472725 
z
" style="fill:#669acc;fill-opacity:0.8;"/>
    <path clip-path="url(#p5dd2747e57)" d="M 138.811632 122.699668 
L 120.574663 124.7222 
L 127.613611 142.877828 
z
" style="fill:#6ea7dd;fill-opacity:0.8;"/>
    <path clip-path="url(#p5dd2747e57)" d="M 187.304224 110.045179 
L 198.682823 114.385289 
L 168.703213 113.147202 
z
" style="fill:#466b8d;fill-opacity:0.8;"/>
    <path clip-path="url(#p5dd2747e57)" d="M 266.170582 120.258395 
L 247.191582 122.324738 
L 236.335137 110.143158 
z
" style="fill:#3d5c7a;fill-opacity:0.8;"/>
    <path clip-path="url(#p5dd2747e57)" d="M 138.811632 122.699668 
L 157.260505 120.482841 
L 168.703213 113.147202 
z
" style="fill:#6aa0d4;fill-opacity:0.8;"/>
    <path clip-path="url(#p5dd2747e57)" d="M 353.809558 129.105905 
L 362.947219 146.36708 
L 334.160171 130.505765 
z
" style="fill:#3a5773;fill-opacity:0.8;"/>
    <path clip-path="url(#p5dd2747e57)" d="M 198.682823 114.385289 
L 206.139981 106.980003 
L 217.397208 112.186875 
z
" style="fill:#436687;fill-opacity:0.8;"/>
    <path clip-path="url(#p5dd2747e57)" d="M 146.056674 141.262207 
L 127.613611 142.877828 
L 117.2511 185.761569 
z
" style="fill:#699fd2;fill-opacity:0.8;"/>
    <path clip-path="url(#p5dd2747e57)" d="M 117.2511 185.761569 
L 135.603097 186.209795 
L 146.056674 141.262207 
z
" style="fill:#689dcf;fill-opacity:0.8;"/>
    <path clip-path="url(#p5dd2747e57)" d="M 191.816901 187.06078 
L 163.312014 275.293591 
L 181.884355 279.740137 
z
" style="fill:#6599ca;fill-opacity:0.8;"/>
    <path clip-path="url(#p5dd2747e57)" d="M 138.811632 122.699668 
L 127.613611 142.877828 
L 146.056674 141.262207 
z
" style="fill:#6ea7dc;fill-opacity:0.8;"/>
    <path clip-path="url(#p5dd2747e57)" d="M 187.304224 110.045179 
L 206.139981 106.980003 
L 198.682823 114.385289 
z
" style="fill:#466a8d;fill-opacity:0.8;"/>
    <path clip-path="url(#p5dd2747e57)" d="M 314.738164 131.733005 
L 304.821255 115.491285 
L 334.160171 130.505765 
z
" style="fill:#3a5874;fill-opacity:0.8;"/>
    <path clip-path="url(#p5dd2747e57)" d="M 146.056674 141.262207 
L 157.260505 120.482841 
L 138.811632 122.699668 
z
" style="fill:#6ea7dc;fill-opacity:0.8;"/>
    <path clip-path="url(#p5dd2747e57)" d="M 154.15193 186.832098 
L 163.312014 275.293591 
L 172.882362 186.910278 
z
" style="fill:#669acc;fill-opacity:0.8;"/>
    <path clip-path="url(#p5dd2747e57)" d="M 285.37802 117.97653 
L 304.821255 115.491285 
L 314.738164 131.733005 
z
" style="fill:#3b5a77;fill-opacity:0.8;"/>
    <path clip-path="url(#p5dd2747e57)" d="M 168.703213 113.147202 
L 175.907208 116.996723 
L 187.304224 110.045179 
z
" style="fill:#689ed1;fill-opacity:0.8;"/>
    <path clip-path="url(#p5dd2747e57)" d="M 168.703213 113.147202 
L 157.260505 120.482841 
L 175.907208 116.996723 
z
" style="fill:#69a0d3;fill-opacity:0.8;"/>
    <path clip-path="url(#p5dd2747e57)" d="M 285.37802 117.97653 
L 266.170582 120.258395 
L 255.499929 107.8244 
z
" style="fill:#3d5c7a;fill-opacity:0.8;"/>
    <path clip-path="url(#p5dd2747e57)" d="M 146.056674 141.262207 
L 135.603097 186.209795 
L 154.15193 186.832098 
z
" style="fill:#689dcf;fill-opacity:0.8;"/>
    <path clip-path="url(#p5dd2747e57)" d="M 236.335137 110.143158 
L 255.499929 107.8244 
L 266.170582 120.258395 
z
" style="fill:#3d5c7a;fill-opacity:0.8;"/>
    <path clip-path="url(#p5dd2747e57)" d="M 181.884355 279.740137 
L 200.604622 284.20935 
L 210.958041 187.347646 
z
" style="fill:#6599ca;fill-opacity:0.8;"/>
    <path clip-path="url(#p5dd2747e57)" d="M 172.882362 186.910278 
L 163.312014 275.293591 
L 191.816901 187.06078 
z
" style="fill:#669acc;fill-opacity:0.8;"/>
    <path clip-path="url(#p5dd2747e57)" d="M 236.335137 110.143158 
L 217.397208 112.186875 
L 225.213947 104.067735 
z
" style="fill:#426484;fill-opacity:0.8;"/>
    <path clip-path="url(#p5dd2747e57)" d="M 175.907208 116.996723 
L 157.260505 120.482841 
L 146.056674 141.262207 
z
" style="fill:#6fa8de;fill-opacity:0.8;"/>
    <path clip-path="url(#p5dd2747e57)" d="M 210.958041 187.347646 
L 200.604622 284.20935 
L 219.474867 288.705835 
z
" style="fill:#6599ca;fill-opacity:0.8;"/>
    <path clip-path="url(#p5dd2747e57)" d="M 146.056674 141.262207 
L 154.15193 186.832098 
L 164.721898 139.860703 
z
" style="fill:#689ed1;fill-opacity:0.8;"/>
    <path clip-path="url(#p5dd2747e57)" d="M 217.397208 112.186875 
L 206.139981 106.980003 
L 225.213947 104.067735 
z
" style="fill:#456889;fill-opacity:0.8;"/>
    <path clip-path="url(#p5dd2747e57)" d="M 334.160171 130.505765 
L 304.821255 115.491285 
L 324.508246 112.788799 
z
" style="fill:#3b5976;fill-opacity:0.8;"/>
    <path clip-path="url(#p5dd2747e57)" d="M 164.721898 139.860703 
L 175.907208 116.996723 
L 146.056674 141.262207 
z
" style="fill:#6da5da;fill-opacity:0.8;"/>
    <path clip-path="url(#p5dd2747e57)" d="M 194.797285 113.625645 
L 206.139981 106.980003 
L 187.304224 110.045179 
z
" style="fill:#679cce;fill-opacity:0.8;"/>
    <path clip-path="url(#p5dd2747e57)" d="M 334.160171 130.505765 
L 344.447203 109.862825 
L 353.809558 129.105905 
z
" style="fill:#395772;fill-opacity:0.8;"/>
    <path clip-path="url(#p5dd2747e57)" d="M 187.304224 110.045179 
L 175.907208 116.996723 
L 194.797285 113.625645 
z
" style="fill:#689ed0;fill-opacity:0.8;"/>
    <path clip-path="url(#p5dd2747e57)" d="M 285.37802 117.97653 
L 255.499929 107.8244 
L 274.914103 104.125441 
z
" style="fill:#3e5e7c;fill-opacity:0.8;"/>
    <path clip-path="url(#p5dd2747e57)" d="M 210.958041 187.347646 
L 191.816901 187.06078 
L 181.884355 279.740137 
z
" style="fill:#669acc;fill-opacity:0.8;"/>
    <path clip-path="url(#p5dd2747e57)" d="M 172.882362 186.910278 
L 183.604847 138.442795 
L 154.15193 186.832098 
z
" style="fill:#689dcf;fill-opacity:0.8;"/>
    <path clip-path="url(#p5dd2747e57)" d="M 154.15193 186.832098 
L 183.604847 138.442795 
L 164.721898 139.860703 
z
" style="fill:#689ed1;fill-opacity:0.8;"/>
    <path clip-path="url(#p5dd2747e57)" d="M 285.37802 117.97653 
L 294.586374 100.174684 
L 304.821255 115.491285 
z
" style="fill:#3c5b78;fill-opacity:0.8;"/>
    <path clip-path="url(#p5dd2747e57)" d="M 244.527057 101.306982 
L 255.499929 107.8244 
L 236.335137 110.143158 
z
" style="fill:#426484;fill-opacity:0.8;"/>
    <path clip-path="url(#p5dd2747e57)" d="M 194.797285 113.625645 
L 175.907208 116.996723 
L 164.721898 139.860703 
z
" style="fill:#6ea7dc;fill-opacity:0.8;"/>
    <path clip-path="url(#p5dd2747e57)" d="M 324.508246 112.788799 
L 344.447203 109.862825 
L 334.160171 130.505765 
z
" style="fill:#3b5a76;fill-opacity:0.8;"/>
    <path clip-path="url(#p5dd2747e57)" d="M 194.797285 113.625645 
L 225.213947 104.067735 
L 206.139981 106.980003 
z
" style="fill:#679cce;fill-opacity:0.8;"/>
    <path clip-path="url(#p5dd2747e57)" d="M 249.863304 188.313376 
L 219.474867 288.705835 
L 238.497067 293.229374 
z
" style="fill:#6599ca;fill-opacity:0.8;"/>
    <path clip-path="url(#p5dd2747e57)" d="M 236.335137 110.143158 
L 225.213947 104.067735 
L 244.527057 101.306982 
z
" style="fill:#436687;fill-opacity:0.8;"/>
    <path clip-path="url(#p5dd2747e57)" d="M 274.914103 104.125441 
L 294.586374 100.174684 
L 285.37802 117.97653 
z
" style="fill:#3e5e7d;fill-opacity:0.8;"/>
    <path clip-path="url(#p5dd2747e57)" d="M 172.882362 186.910278 
L 191.816901 187.06078 
L 183.604847 138.442795 
z
" style="fill:#689dcf;fill-opacity:0.8;"/>
    <path clip-path="url(#p5dd2747e57)" d="M 164.721898 139.860703 
L 183.604847 138.442795 
L 194.797285 113.625645 
z
" style="fill:#6ca4d9;fill-opacity:0.8;"/>
    <path clip-path="url(#p5dd2747e57)" d="M 274.914103 104.125441 
L 255.499929 107.8244 
L 244.527057 101.306982 
z
" style="fill:#456889;fill-opacity:0.8;"/>
    <path clip-path="url(#p5dd2747e57)" d="M 210.958041 187.347646 
L 219.474867 288.705835 
L 230.306547 187.766572 
z
" style="fill:#669acc;fill-opacity:0.8;"/>
    <path clip-path="url(#p5dd2747e57)" d="M 194.797285 113.625645 
L 213.932699 110.400375 
L 225.213947 104.067735 
z
" style="fill:#669bcc;fill-opacity:0.8;"/>
    <path clip-path="url(#p5dd2747e57)" d="M 238.497067 293.229374 
L 257.673245 297.780804 
L 269.63263 188.685383 
z
" style="fill:#6599ca;fill-opacity:0.8;"/>
    <path clip-path="url(#p5dd2747e57)" d="M 324.508246 112.788799 
L 304.821255 115.491285 
L 314.527416 95.901873 
z
" style="fill:#3c5a77;fill-opacity:0.8;"/>
    <path clip-path="url(#p5dd2747e57)" d="M 183.604847 138.442795 
L 191.816901 187.06078 
L 202.695597 135.754319 
z
" style="fill:#699ed1;fill-opacity:0.8;"/>
    <path clip-path="url(#p5dd2747e57)" d="M 194.797285 113.625645 
L 183.604847 138.442795 
L 202.695597 135.754319 
z
" style="fill:#6da5da;fill-opacity:0.8;"/>
    <path clip-path="url(#p5dd2747e57)" d="M 213.932699 110.400375 
L 244.527057 101.306982 
L 225.213947 104.067735 
z
" style="fill:#669acc;fill-opacity:0.8;"/>
    <path clip-path="url(#p5dd2747e57)" d="M 202.695597 135.754319 
L 191.816901 187.06078 
L 210.958041 187.347646 
z
" style="fill:#679ccf;fill-opacity:0.8;"/>
    <path clip-path="url(#p5dd2747e57)" d="M 230.306547 187.766572 
L 219.474867 288.705835 
L 249.863304 188.313376 
z
" style="fill:#669acb;fill-opacity:0.8;"/>
    <path clip-path="url(#p5dd2747e57)" d="M 202.695597 135.754319 
L 213.932699 110.400375 
L 194.797285 113.625645 
z
" style="fill:#6da6db;fill-opacity:0.8;"/>
    <path clip-path="url(#p5dd2747e57)" d="M 269.63263 188.685383 
L 257.673245 297.780804 
L 277.005437 302.361514 
z
" style="fill:#6599ca;fill-opacity:0.8;"/>
    <path clip-path="url(#p5dd2747e57)" d="M 304.821255 115.491285 
L 294.586374 100.174684 
L 314.527416 95.901873 
z
" style="fill:#3e5e7c;fill-opacity:0.8;"/>
    <path clip-path="url(#p5dd2747e57)" d="M 244.527057 101.306982 
L 264.080327 98.694953 
L 274.914103 104.125441 
z
" style="fill:#446788;fill-opacity:0.8;"/>
    <path clip-path="url(#p5dd2747e57)" d="M 314.527416 95.901873 
L 344.447203 109.862825 
L 324.508246 112.788799 
z
" style="fill:#3c5a77;fill-opacity:0.8;"/>
    <path clip-path="url(#p5dd2747e57)" d="M 274.914103 104.125441 
L 264.080327 98.694953 
L 294.586374 100.174684 
z
" style="fill:#476b8d;fill-opacity:0.8;"/>
    <path clip-path="url(#p5dd2747e57)" d="M 233.314637 107.317028 
L 244.527057 101.306982 
L 213.932699 110.400375 
z
" style="fill:#6599ca;fill-opacity:0.8;"/>
    <path clip-path="url(#p5dd2747e57)" d="M 210.958041 187.347646 
L 222.028287 133.186188 
L 202.695597 135.754319 
z
" style="fill:#689ed1;fill-opacity:0.8;"/>
    <path clip-path="url(#p5dd2747e57)" d="M 202.695597 135.754319 
L 222.028287 133.186188 
L 213.932699 110.400375 
z
" style="fill:#6da5da;fill-opacity:0.8;"/>
    <path clip-path="url(#p5dd2747e57)" d="M 269.63263 188.685383 
L 249.863304 188.313376 
L 238.497067 293.229374 
z
" style="fill:#669acb;fill-opacity:0.8;"/>
    <path clip-path="url(#p5dd2747e57)" d="M 213.932699 110.400375 
L 222.028287 133.186188 
L 233.314637 107.317028 
z
" style="fill:#6da5da;fill-opacity:0.8;"/>
    <path clip-path="url(#p5dd2747e57)" d="M 241.604573 130.736007 
L 210.958041 187.347646 
L 230.306547 187.766572 
z
" style="fill:#679cce;fill-opacity:0.8;"/>
    <path clip-path="url(#p5dd2747e57)" d="M 264.080327 98.694953 
L 244.527057 101.306982 
L 252.944422 104.371215 
z
" style="fill:#6396c7;fill-opacity:0.8;"/>
    <path clip-path="url(#p5dd2747e57)" d="M 294.586374 100.174684 
L 264.080327 98.694953 
L 283.897857 94.72618 
z
" style="fill:#476b8d;fill-opacity:0.8;"/>
    <path clip-path="url(#p5dd2747e57)" d="M 252.944422 104.371215 
L 244.527057 101.306982 
L 233.314637 107.317028 
z
" style="fill:#6599ca;fill-opacity:0.8;"/>
    <path clip-path="url(#p5dd2747e57)" d="M 222.028287 133.186188 
L 210.958041 187.347646 
L 241.604573 130.736007 
z
" style="fill:#689ed1;fill-opacity:0.8;"/>
    <path clip-path="url(#p5dd2747e57)" d="M 314.527416 95.901873 
L 294.586374 100.174684 
L 283.897857 94.72618 
z
" style="fill:#476c8e;fill-opacity:0.8;"/>
    <path clip-path="url(#p5dd2747e57)" d="M 334.746199 91.354119 
L 344.447203 109.862825 
L 314.527416 95.901873 
z
" style="fill:#3d5c7a;fill-opacity:0.8;"/>
    <path clip-path="url(#p5dd2747e57)" d="M 233.314637 107.317028 
L 222.028287 133.186188 
L 252.944422 104.371215 
z
" style="fill:#6da5da;fill-opacity:0.8;"/>
    <path clip-path="url(#p5dd2747e57)" d="M 230.306547 187.766572 
L 249.863304 188.313376 
L 241.604573 130.736007 
z
" style="fill:#679cce;fill-opacity:0.8;"/>
    <path clip-path="url(#p5dd2747e57)" d="M 277.005437 302.361514 
L 289.63125 188.333551 
L 269.63263 188.685383 
z
" style="fill:#669acc;fill-opacity:0.8;"/>
    <path clip-path="url(#p5dd2747e57)" d="M 283.897857 94.72618 
L 264.080327 98.694953 
L 252.944422 104.371215 
z
" style="fill:#6497c8;fill-opacity:0.8;"/>
    <path clip-path="url(#p5dd2747e57)" d="M 222.028287 133.186188 
L 241.604573 130.736007 
L 252.944422 104.371215 
z
" style="fill:#6da4d9;fill-opacity:0.8;"/>
    <path clip-path="url(#p5dd2747e57)" d="M 283.897857 94.72618 
L 304.013264 89.241104 
L 314.527416 95.901873 
z
" style="fill:#486c8f;fill-opacity:0.8;"/>
    <path clip-path="url(#p5dd2747e57)" d="M 241.604573 130.736007 
L 249.863304 188.313376 
L 261.426203 128.401286 
z
" style="fill:#689dd0;fill-opacity:0.8;"/>
    <path clip-path="url(#p5dd2747e57)" d="M 252.944422 104.371215 
L 272.823468 101.562451 
L 283.897857 94.72618 
z
" style="fill:#689dcf;fill-opacity:0.8;"/>
    <path clip-path="url(#p5dd2747e57)" d="M 252.944422 104.371215 
L 241.604573 130.736007 
L 261.426203 128.401286 
z
" style="fill:#6da4d9;fill-opacity:0.8;"/>
    <path clip-path="url(#p5dd2747e57)" d="M 314.527416 95.901873 
L 324.428573 83.368736 
L 334.746199 91.354119 
z
" style="fill:#456889;fill-opacity:0.8;"/>
    <path clip-path="url(#p5dd2747e57)" d="M 249.863304 188.313376 
L 269.63263 188.685383 
L 281.495029 126.179652 
z
" style="fill:#679cce;fill-opacity:0.8;"/>
    <path clip-path="url(#p5dd2747e57)" d="M 261.426203 128.401286 
L 272.823468 101.562451 
L 252.944422 104.371215 
z
" style="fill:#6da5d9;fill-opacity:0.8;"/>
    <path clip-path="url(#p5dd2747e57)" d="M 304.013264 89.241104 
L 324.428573 83.368736 
L 314.527416 95.901873 
z
" style="fill:#486d90;fill-opacity:0.8;"/>
    <path clip-path="url(#p5dd2747e57)" d="M 261.426203 128.401286 
L 249.863304 188.313376 
L 281.495029 126.179652 
z
" style="fill:#689dd0;fill-opacity:0.8;"/>
    <path clip-path="url(#p5dd2747e57)" d="M 292.953721 98.863342 
L 304.013264 89.241104 
L 283.897857 94.72618 
z
" style="fill:#6da5da;fill-opacity:0.8;"/>
    <path clip-path="url(#p5dd2747e57)" d="M 283.897857 94.72618 
L 272.823468 101.562451 
L 292.953721 98.863342 
z
" style="fill:#689dcf;fill-opacity:0.8;"/>
    <path clip-path="url(#p5dd2747e57)" d="M 281.495029 126.179652 
L 269.63263 188.685383 
L 289.63125 188.333551 
z
" style="fill:#679cce;fill-opacity:0.8;"/>
    <path clip-path="url(#p5dd2747e57)" d="M 281.495029 126.179652 
L 272.823468 101.562451 
L 261.426203 128.401286 
z
" style="fill:#6ca4d9;fill-opacity:0.8;"/>
    <path clip-path="url(#p5dd2747e57)" d="M 281.495029 126.179652 
L 292.953721 98.863342 
L 272.823468 101.562451 
z
" style="fill:#6da4d9;fill-opacity:0.8;"/>
    <path clip-path="url(#p5dd2747e57)" d="M 292.953721 98.863342 
L 324.428573 83.368736 
L 304.013264 89.241104 
z
" style="fill:#6da5da;fill-opacity:0.8;"/>
    <path clip-path="url(#p5dd2747e57)" d="M 289.63125 188.333551 
L 301.813011 124.068407 
L 281.495029 126.179652 
z
" style="fill:#689dcf;fill-opacity:0.8;"/>
    <path clip-path="url(#p5dd2747e57)" d="M 313.423094 92.809678 
L 292.953721 98.863342 
L 281.495029 126.179652 
z
" style="fill:#6ea7dd;fill-opacity:0.8;"/>
    <path clip-path="url(#p5dd2747e57)" d="M 313.423094 92.809678 
L 324.428573 83.368736 
L 292.953721 98.863342 
z
" style="fill:#6ca4d9;fill-opacity:0.8;"/>
    <path clip-path="url(#p5dd2747e57)" d="M 281.495029 126.179652 
L 301.813011 124.068407 
L 313.423094 92.809678 
z
" style="fill:#6ba2d7;fill-opacity:0.8;"/>
   </g>
   <g id="text_21">
    <!-- Cost Increase from Optimal -->
    <defs>
     <path d="M 52 44.1875 
Q 55.375 50.25 60.0625 53.125 
Q 64.75 56 71.09375 56 
Q 79.640625 56 84.28125 50.015625 
Q 88.921875 44.046875 88.921875 33.015625 
L 88.921875 0 
L 79.890625 0 
L 79.890625 32.71875 
Q 79.890625 40.578125 77.09375 44.375 
Q 74.3125 48.1875 68.609375 48.1875 
Q 61.625 48.1875 57.5625 43.546875 
Q 53.515625 38.921875 53.515625 30.90625 
L 53.515625 0 
L 44.484375 0 
L 44.484375 32.71875 
Q 44.484375 40.625 41.703125 44.40625 
Q 38.921875 48.1875 33.109375 48.1875 
Q 26.21875 48.1875 22.15625 43.53125 
Q 18.109375 38.875 18.109375 30.90625 
L 18.109375 0 
L 9.078125 0 
L 9.078125 54.6875 
L 18.109375 54.6875 
L 18.109375 46.1875 
Q 21.1875 51.21875 25.484375 53.609375 
Q 29.78125 56 35.6875 56 
Q 41.65625 56 45.828125 52.96875 
Q 50 49.953125 52 44.1875 
z
" id="DejaVuSans-109"/>
     <path d="M 39.40625 66.21875 
Q 28.65625 66.21875 22.328125 58.203125 
Q 16.015625 50.203125 16.015625 36.375 
Q 16.015625 22.609375 22.328125 14.59375 
Q 28.65625 6.59375 39.40625 6.59375 
Q 50.140625 6.59375 56.421875 14.59375 
Q 62.703125 22.609375 62.703125 36.375 
Q 62.703125 50.203125 56.421875 58.203125 
Q 50.140625 66.21875 39.40625 66.21875 
z
M 39.40625 74.21875 
Q 54.734375 74.21875 63.90625 63.9375 
Q 73.09375 53.65625 73.09375 36.375 
Q 73.09375 19.140625 63.90625 8.859375 
Q 54.734375 -1.421875 39.40625 -1.421875 
Q 24.03125 -1.421875 14.8125 8.828125 
Q 5.609375 19.09375 5.609375 36.375 
Q 5.609375 53.65625 14.8125 63.9375 
Q 24.03125 74.21875 39.40625 74.21875 
z
" id="DejaVuSans-79"/>
     <path d="M 18.109375 8.203125 
L 18.109375 -20.796875 
L 9.078125 -20.796875 
L 9.078125 54.6875 
L 18.109375 54.6875 
L 18.109375 46.390625 
Q 20.953125 51.265625 25.265625 53.625 
Q 29.59375 56 35.59375 56 
Q 45.5625 56 51.78125 48.09375 
Q 58.015625 40.1875 58.015625 27.296875 
Q 58.015625 14.40625 51.78125 6.484375 
Q 45.5625 -1.421875 35.59375 -1.421875 
Q 29.59375 -1.421875 25.265625 0.953125 
Q 20.953125 3.328125 18.109375 8.203125 
z
M 48.6875 27.296875 
Q 48.6875 37.203125 44.609375 42.84375 
Q 40.53125 48.484375 33.40625 48.484375 
Q 26.265625 48.484375 22.1875 42.84375 
Q 18.109375 37.203125 18.109375 27.296875 
Q 18.109375 17.390625 22.1875 11.75 
Q 26.265625 6.109375 33.40625 6.109375 
Q 40.53125 6.109375 44.609375 11.75 
Q 48.6875 17.390625 48.6875 27.296875 
z
" id="DejaVuSans-112"/>
     <path d="M 9.421875 75.984375 
L 18.40625 75.984375 
L 18.40625 0 
L 9.421875 0 
z
" id="DejaVuSans-108"/>
    </defs>
    <g transform="translate(131.5035 30.72)scale(0.144 -0.144)">
     <use xlink:href="#DejaVuSans-67"/>
     <use x="69.824219" xlink:href="#DejaVuSans-111"/>
     <use x="131.005859" xlink:href="#DejaVuSans-115"/>
     <use x="183.105469" xlink:href="#DejaVuSans-116"/>
     <use x="222.314453" xlink:href="#DejaVuSans-32"/>
     <use x="254.101562" xlink:href="#DejaVuSans-73"/>
     <use x="283.59375" xlink:href="#DejaVuSans-110"/>
     <use x="346.972656" xlink:href="#DejaVuSans-99"/>
     <use x="401.953125" xlink:href="#DejaVuSans-114"/>
     <use x="443.035156" xlink:href="#DejaVuSans-101"/>
     <use x="504.558594" xlink:href="#DejaVuSans-97"/>
     <use x="565.837891" xlink:href="#DejaVuSans-115"/>
     <use x="617.9375" xlink:href="#DejaVuSans-101"/>
     <use x="679.460938" xlink:href="#DejaVuSans-32"/>
     <use x="711.248047" xlink:href="#DejaVuSans-102"/>
     <use x="746.453125" xlink:href="#DejaVuSans-114"/>
     <use x="787.535156" xlink:href="#DejaVuSans-111"/>
     <use x="848.716797" xlink:href="#DejaVuSans-109"/>
     <use x="946.128906" xlink:href="#DejaVuSans-32"/>
     <use x="977.916016" xlink:href="#DejaVuSans-79"/>
     <use x="1056.626953" xlink:href="#DejaVuSans-112"/>
     <use x="1120.103516" xlink:href="#DejaVuSans-116"/>
     <use x="1159.3125" xlink:href="#DejaVuSans-105"/>
     <use x="1187.095703" xlink:href="#DejaVuSans-109"/>
     <use x="1284.507812" xlink:href="#DejaVuSans-97"/>
     <use x="1345.787109" xlink:href="#DejaVuSans-108"/>
    </g>
   </g>
   <g id="legend_1">
    <g id="patch_6">
     <path d="M 12.8 91.8 
L 112.723438 91.8 
Q 114.723438 91.8 114.723438 89.8 
L 114.723438 61.44375 
Q 114.723438 59.44375 112.723438 59.44375 
L 12.8 59.44375 
Q 10.8 59.44375 10.8 61.44375 
L 10.8 89.8 
Q 10.8 91.8 12.8 91.8 
z
" style="fill:#e5e5e5;opacity:0.8;stroke:#cccccc;stroke-linejoin:miter;stroke-width:0.5;"/>
    </g>
    <g id="line2d_39"/>
    <g id="line2d_40">
     <g>
      <use style="fill:#6fa8de;fill-opacity:0.8;stroke:#6fa8de;stroke-opacity:0.8;" x="24.8" xlink:href="#mfdbdaa5645" y="67.542188"/>
     </g>
    </g>
    <g id="text_22">
     <!-- Cost Surface -->
     <defs>
      <path d="M 8.5 21.578125 
L 8.5 54.6875 
L 17.484375 54.6875 
L 17.484375 21.921875 
Q 17.484375 14.15625 20.5 10.265625 
Q 23.53125 6.390625 29.59375 6.390625 
Q 36.859375 6.390625 41.078125 11.03125 
Q 45.3125 15.671875 45.3125 23.6875 
L 45.3125 54.6875 
L 54.296875 54.6875 
L 54.296875 0 
L 45.3125 0 
L 45.3125 8.40625 
Q 42.046875 3.421875 37.71875 1 
Q 33.40625 -1.421875 27.6875 -1.421875 
Q 18.265625 -1.421875 13.375 4.4375 
Q 8.5 10.296875 8.5 21.578125 
z
M 31.109375 56 
z
" id="DejaVuSans-117"/>
     </defs>
     <g transform="translate(42.8 71.042188)scale(0.1 -0.1)">
      <use xlink:href="#DejaVuSans-67"/>
      <use x="69.824219" xlink:href="#DejaVuSans-111"/>
      <use x="131.005859" xlink:href="#DejaVuSans-115"/>
      <use x="183.105469" xlink:href="#DejaVuSans-116"/>
      <use x="222.314453" xlink:href="#DejaVuSans-32"/>
      <use x="254.101562" xlink:href="#DejaVuSans-83"/>
      <use x="317.578125" xlink:href="#DejaVuSans-117"/>
      <use x="380.957031" xlink:href="#DejaVuSans-114"/>
      <use x="422.070312" xlink:href="#DejaVuSans-102"/>
      <use x="457.275391" xlink:href="#DejaVuSans-97"/>
      <use x="518.554688" xlink:href="#DejaVuSans-99"/>
      <use x="573.535156" xlink:href="#DejaVuSans-101"/>
     </g>
    </g>
    <g id="line2d_41"/>
    <g id="line2d_42">
     <defs>
      <path d="M 0 -3 
L -0.673542 -0.927051 
L -2.85317 -0.927051 
L -1.089814 0.354102 
L -1.763356 2.427051 
L -0 1.145898 
L 1.763356 2.427051 
L 1.089814 0.354102 
L 2.85317 -0.927051 
L 0.673542 -0.927051 
z
" id="m44641886ec" style="stroke:#ff0000;stroke-linejoin:bevel;"/>
     </defs>
     <g>
      <use style="fill:#ff0000;stroke:#ff0000;stroke-linejoin:bevel;" x="24.8" xlink:href="#m44641886ec" y="82.220313"/>
     </g>
    </g>
    <g id="text_23">
     <!-- Optimal Point -->
     <defs>
      <path d="M 19.671875 64.796875 
L 19.671875 37.40625 
L 32.078125 37.40625 
Q 38.96875 37.40625 42.71875 40.96875 
Q 46.484375 44.53125 46.484375 51.125 
Q 46.484375 57.671875 42.71875 61.234375 
Q 38.96875 64.796875 32.078125 64.796875 
z
M 9.8125 72.90625 
L 32.078125 72.90625 
Q 44.34375 72.90625 50.609375 67.359375 
Q 56.890625 61.8125 56.890625 51.125 
Q 56.890625 40.328125 50.609375 34.8125 
Q 44.34375 29.296875 32.078125 29.296875 
L 19.671875 29.296875 
L 19.671875 0 
L 9.8125 0 
z
" id="DejaVuSans-80"/>
     </defs>
     <g transform="translate(42.8 85.720313)scale(0.1 -0.1)">
      <use xlink:href="#DejaVuSans-79"/>
      <use x="78.710938" xlink:href="#DejaVuSans-112"/>
      <use x="142.1875" xlink:href="#DejaVuSans-116"/>
      <use x="181.396484" xlink:href="#DejaVuSans-105"/>
      <use x="209.179688" xlink:href="#DejaVuSans-109"/>
      <use x="306.591797" xlink:href="#DejaVuSans-97"/>
      <use x="367.871094" xlink:href="#DejaVuSans-108"/>
      <use x="395.654297" xlink:href="#DejaVuSans-32"/>
      <use x="427.441406" xlink:href="#DejaVuSans-80"/>
      <use x="487.697266" xlink:href="#DejaVuSans-111"/>
      <use x="548.878906" xlink:href="#DejaVuSans-105"/>
      <use x="576.662109" xlink:href="#DejaVuSans-110"/>
      <use x="640.041016" xlink:href="#DejaVuSans-116"/>
     </g>
    </g>
   </g>
   <g id="line2d_43">
    <g clip-path="url(#p5dd2747e57)">
     <use style="fill:#ff0000;stroke:#ff0000;stroke-linejoin:bevel;" x="181.884354" xlink:href="#m44641886ec" y="279.740136"/>
    </g>
   </g>
  </g>
 </g>
 <defs>
  <clipPath id="p5dd2747e57">
   <rect height="324" width="439.2" x="10.8" y="10.8"/>
  </clipPath>
 </defs>
</svg>
