<?xml version="1.0" encoding="utf-8" standalone="no"?>
<!DOCTYPE svg PUBLIC "-//W3C//DTD SVG 1.1//EN"
  "http://www.w3.org/Graphics/SVG/1.1/DTD/svg11.dtd">
<!-- Created with matplotlib (https://matplotlib.org/) -->
<svg height="345.6pt" version="1.1" viewBox="0 0 460.8 345.6" width="460.8pt" xmlns="http://www.w3.org/2000/svg" xmlns:xlink="http://www.w3.org/1999/xlink">
 <defs>
  <style type="text/css">
*{stroke-linecap:butt;stroke-linejoin:round;}
  </style>
 </defs>
 <g id="figure_1">
  <g id="patch_1">
   <path d="M 0 345.6 
L 460.8 345.6 
L 460.8 0 
L 0 0 
z
" style="fill:#ffffff;"/>
  </g>
  <g id="patch_2">
   <path d="M 10.8 334.8 
L 450 334.8 
L 450 10.8 
L 10.8 10.8 
z
" style="fill:#e5e5e5;"/>
  </g>
  <g id="pane3d_1">
   <g id="patch_3">
    <path d="M 69.022747 263.207418 
L 194.724085 183.76996 
L 192.631291 31.978014 
L 59.92128 103.350937 
" style="fill:#f2f2f2;opacity:0.5;stroke:#f2f2f2;stroke-linejoin:miter;stroke-width:0.5;"/>
   </g>
  </g>
  <g id="pane3d_2">
   <g id="patch_4">
    <path d="M 194.724085 183.76996 
L 398.348434 228.180625 
L 406.867833 71.811455 
L 192.631291 31.978014 
" style="fill:#e6e6e6;opacity:0.5;stroke:#e6e6e6;stroke-linejoin:miter;stroke-width:0.5;"/>
   </g>
  </g>
  <g id="pane3d_3">
   <g id="patch_5">
    <path d="M 69.022747 263.207418 
L 283.263076 314.930875 
L 398.348434 228.180625 
L 194.724085 183.76996 
" style="fill:#ececec;opacity:0.5;stroke:#ececec;stroke-linejoin:miter;stroke-width:0.5;"/>
   </g>
  </g>
  <g id="axis3d_1">
   <g id="line2d_1">
    <path d="M 69.022747 263.207418 
L 283.263076 314.930875 
" style="fill:none;stroke:#ffffff;stroke-linecap:square;"/>
   </g>
   <g id="text_1">
    <!-- Mass -->
    <defs>
     <path d="M 9.8125 72.90625 
L 24.515625 72.90625 
L 43.109375 23.296875 
L 61.8125 72.90625 
L 76.515625 72.90625 
L 76.515625 0 
L 66.890625 0 
L 66.890625 64.015625 
L 48.09375 14.015625 
L 38.1875 14.015625 
L 19.390625 64.015625 
L 19.390625 0 
L 9.8125 0 
z
" id="DejaVuSans-77"/>
     <path d="M 34.28125 27.484375 
Q 23.390625 27.484375 19.1875 25 
Q 14.984375 22.515625 14.984375 16.5 
Q 14.984375 11.71875 18.140625 8.90625 
Q 21.296875 6.109375 26.703125 6.109375 
Q 34.1875 6.109375 38.703125 11.40625 
Q 43.21875 16.703125 43.21875 25.484375 
L 43.21875 27.484375 
z
M 52.203125 31.203125 
L 52.203125 0 
L 43.21875 0 
L 43.21875 8.296875 
Q 40.140625 3.328125 35.546875 0.953125 
Q 30.953125 -1.421875 24.3125 -1.421875 
Q 15.921875 -1.421875 10.953125 3.296875 
Q 6 8.015625 6 15.921875 
Q 6 25.140625 12.171875 29.828125 
Q 18.359375 34.515625 30.609375 34.515625 
L 43.21875 34.515625 
L 43.21875 35.40625 
Q 43.21875 41.609375 39.140625 45 
Q 35.0625 48.390625 27.6875 48.390625 
Q 23 48.390625 18.546875 47.265625 
Q 14.109375 46.140625 10.015625 43.890625 
L 10.015625 52.203125 
Q 14.9375 54.109375 19.578125 55.046875 
Q 24.21875 56 28.609375 56 
Q 40.484375 56 46.34375 49.84375 
Q 52.203125 43.703125 52.203125 31.203125 
z
" id="DejaVuSans-97"/>
     <path d="M 44.28125 53.078125 
L 44.28125 44.578125 
Q 40.484375 46.53125 36.375 47.5 
Q 32.28125 48.484375 27.875 48.484375 
Q 21.1875 48.484375 17.84375 46.4375 
Q 14.5 44.390625 14.5 40.28125 
Q 14.5 37.15625 16.890625 35.375 
Q 19.28125 33.59375 26.515625 31.984375 
L 29.59375 31.296875 
Q 39.15625 29.25 43.1875 25.515625 
Q 47.21875 21.78125 47.21875 15.09375 
Q 47.21875 7.46875 41.1875 3.015625 
Q 35.15625 -1.421875 24.609375 -1.421875 
Q 20.21875 -1.421875 15.453125 -0.5625 
Q 10.6875 0.296875 5.421875 2 
L 5.421875 11.28125 
Q 10.40625 8.6875 15.234375 7.390625 
Q 20.0625 6.109375 24.8125 6.109375 
Q 31.15625 6.109375 34.5625 8.28125 
Q 37.984375 10.453125 37.984375 14.40625 
Q 37.984375 18.0625 35.515625 20.015625 
Q 33.0625 21.96875 24.703125 23.78125 
L 21.578125 24.515625 
Q 13.234375 26.265625 9.515625 29.90625 
Q 5.8125 33.546875 5.8125 39.890625 
Q 5.8125 47.609375 11.28125 51.796875 
Q 16.75 56 26.8125 56 
Q 31.78125 56 36.171875 55.265625 
Q 40.578125 54.546875 44.28125 53.078125 
z
" id="DejaVuSans-115"/>
    </defs>
    <g style="fill:#555555;" transform="translate(142.570646 322.492718)scale(0.12 -0.12)">
     <use xlink:href="#DejaVuSans-77"/>
     <use x="86.279297" xlink:href="#DejaVuSans-97"/>
     <use x="147.558594" xlink:href="#DejaVuSans-115"/>
     <use x="199.658203" xlink:href="#DejaVuSans-115"/>
    </g>
   </g>
   <g id="Line3DCollection_1">
    <path d="M 100.118698 270.714829 
L 224.364012 190.234456 
L 223.757951 37.765458 
" style="fill:none;stroke:#ffffff;stroke-width:0.8;"/>
    <path d="M 136.615811 279.526227 
L 259.115367 197.81376 
L 260.277555 44.555623 
" style="fill:none;stroke:#ffffff;stroke-width:0.8;"/>
    <path d="M 173.695186 288.478199 
L 294.380467 205.505112 
L 297.364802 51.451332 
" style="fill:none;stroke:#ffffff;stroke-width:0.8;"/>
    <path d="M 211.370869 297.574136 
L 330.170788 213.311016 
L 335.033032 58.455063 
" style="fill:none;stroke:#ffffff;stroke-width:0.8;"/>
    <path d="M 249.657361 306.817539 
L 366.498154 221.234049 
L 373.296003 65.569376 
" style="fill:none;stroke:#ffffff;stroke-width:0.8;"/>
   </g>
   <g id="xtick_1">
    <g id="line2d_2">
     <path clip-path="url(#pd05d40ed19)" d="M 236.335135 168.421622 
" style="fill:none;stroke:#ffffff;stroke-linecap:square;stroke-width:0.8;"/>
    </g>
    <g id="line2d_3">
     <path d="M 101.189436 270.021255 
L 97.973214 272.104574 
" style="fill:none;stroke:#555555;stroke-linecap:square;stroke-width:0.8;"/>
    </g>
    <g id="text_2">
     <!-- -20% -->
     <defs>
      <path d="M 4.890625 31.390625 
L 31.203125 31.390625 
L 31.203125 23.390625 
L 4.890625 23.390625 
z
" id="DejaVuSans-45"/>
      <path d="M 19.1875 8.296875 
L 53.609375 8.296875 
L 53.609375 0 
L 7.328125 0 
L 7.328125 8.296875 
Q 12.9375 14.109375 22.625 23.890625 
Q 32.328125 33.6875 34.8125 36.53125 
Q 39.546875 41.84375 41.421875 45.53125 
Q 43.3125 49.21875 43.3125 52.78125 
Q 43.3125 58.59375 39.234375 62.25 
Q 35.15625 65.921875 28.609375 65.921875 
Q 23.96875 65.921875 18.8125 64.3125 
Q 13.671875 62.703125 7.8125 59.421875 
L 7.8125 69.390625 
Q 13.765625 71.78125 18.9375 73 
Q 24.125 74.21875 28.421875 74.21875 
Q 39.75 74.21875 46.484375 68.546875 
Q 53.21875 62.890625 53.21875 53.421875 
Q 53.21875 48.921875 51.53125 44.890625 
Q 49.859375 40.875 45.40625 35.40625 
Q 44.1875 33.984375 37.640625 27.21875 
Q 31.109375 20.453125 19.1875 8.296875 
z
" id="DejaVuSans-50"/>
      <path d="M 31.78125 66.40625 
Q 24.171875 66.40625 20.328125 58.90625 
Q 16.5 51.421875 16.5 36.375 
Q 16.5 21.390625 20.328125 13.890625 
Q 24.171875 6.390625 31.78125 6.390625 
Q 39.453125 6.390625 43.28125 13.890625 
Q 47.125 21.390625 47.125 36.375 
Q 47.125 51.421875 43.28125 58.90625 
Q 39.453125 66.40625 31.78125 66.40625 
z
M 31.78125 74.21875 
Q 44.046875 74.21875 50.515625 64.515625 
Q 56.984375 54.828125 56.984375 36.375 
Q 56.984375 17.96875 50.515625 8.265625 
Q 44.046875 -1.421875 31.78125 -1.421875 
Q 19.53125 -1.421875 13.0625 8.265625 
Q 6.59375 17.96875 6.59375 36.375 
Q 6.59375 54.828125 13.0625 64.515625 
Q 19.53125 74.21875 31.78125 74.21875 
z
" id="DejaVuSans-48"/>
      <path d="M 72.703125 32.078125 
Q 68.453125 32.078125 66.03125 28.46875 
Q 63.625 24.859375 63.625 18.40625 
Q 63.625 12.0625 66.03125 8.421875 
Q 68.453125 4.78125 72.703125 4.78125 
Q 76.859375 4.78125 79.265625 8.421875 
Q 81.6875 12.0625 81.6875 18.40625 
Q 81.6875 24.8125 79.265625 28.4375 
Q 76.859375 32.078125 72.703125 32.078125 
z
M 72.703125 38.28125 
Q 80.421875 38.28125 84.953125 32.90625 
Q 89.5 27.546875 89.5 18.40625 
Q 89.5 9.28125 84.9375 3.921875 
Q 80.375 -1.421875 72.703125 -1.421875 
Q 64.890625 -1.421875 60.34375 3.921875 
Q 55.8125 9.28125 55.8125 18.40625 
Q 55.8125 27.59375 60.375 32.9375 
Q 64.9375 38.28125 72.703125 38.28125 
z
M 22.3125 68.015625 
Q 18.109375 68.015625 15.6875 64.375 
Q 13.28125 60.75 13.28125 54.390625 
Q 13.28125 47.953125 15.671875 44.328125 
Q 18.0625 40.71875 22.3125 40.71875 
Q 26.5625 40.71875 28.96875 44.328125 
Q 31.390625 47.953125 31.390625 54.390625 
Q 31.390625 60.6875 28.953125 64.34375 
Q 26.515625 68.015625 22.3125 68.015625 
z
M 66.40625 74.21875 
L 74.21875 74.21875 
L 28.609375 -1.421875 
L 20.796875 -1.421875 
z
M 22.3125 74.21875 
Q 30.03125 74.21875 34.609375 68.875 
Q 39.203125 63.53125 39.203125 54.390625 
Q 39.203125 45.171875 34.640625 39.84375 
Q 30.078125 34.515625 22.3125 34.515625 
Q 14.546875 34.515625 10.03125 39.859375 
Q 5.515625 45.21875 5.515625 54.390625 
Q 5.515625 63.484375 10.046875 68.84375 
Q 14.59375 74.21875 22.3125 74.21875 
z
" id="DejaVuSans-37"/>
     </defs>
     <g style="fill:#555555;" transform="translate(79.8507 292.162967)scale(0.1 -0.1)">
      <use xlink:href="#DejaVuSans-45"/>
      <use x="36.083984" xlink:href="#DejaVuSans-50"/>
      <use x="99.707031" xlink:href="#DejaVuSans-48"/>
      <use x="163.330078" xlink:href="#DejaVuSans-37"/>
     </g>
    </g>
   </g>
   <g id="xtick_2">
    <g id="line2d_4">
     <path clip-path="url(#pd05d40ed19)" d="M 236.335135 168.421622 
" style="fill:none;stroke:#ffffff;stroke-linecap:square;stroke-width:0.8;"/>
    </g>
    <g id="line2d_5">
     <path d="M 137.672103 278.821635 
L 134.499242 280.93807 
" style="fill:none;stroke:#555555;stroke-linecap:square;stroke-width:0.8;"/>
    </g>
    <g id="text_3">
     <!-- -10% -->
     <defs>
      <path d="M 12.40625 8.296875 
L 28.515625 8.296875 
L 28.515625 63.921875 
L 10.984375 60.40625 
L 10.984375 69.390625 
L 28.421875 72.90625 
L 38.28125 72.90625 
L 38.28125 8.296875 
L 54.390625 8.296875 
L 54.390625 0 
L 12.40625 0 
z
" id="DejaVuSans-49"/>
     </defs>
     <g style="fill:#555555;" transform="translate(116.344916 301.0975)scale(0.1 -0.1)">
      <use xlink:href="#DejaVuSans-45"/>
      <use x="36.083984" xlink:href="#DejaVuSans-49"/>
      <use x="99.707031" xlink:href="#DejaVuSans-48"/>
      <use x="163.330078" xlink:href="#DejaVuSans-37"/>
     </g>
    </g>
   </g>
   <g id="xtick_3">
    <g id="line2d_6">
     <path clip-path="url(#pd05d40ed19)" d="M 236.335135 168.421622 
" style="fill:none;stroke:#ffffff;stroke-linecap:square;stroke-width:0.8;"/>
    </g>
    <g id="line2d_7">
     <path d="M 174.736433 287.762325 
L 171.608733 289.91267 
" style="fill:none;stroke:#555555;stroke-linecap:square;stroke-width:0.8;"/>
    </g>
    <g id="text_4">
     <!-- 0% -->
     <g style="fill:#555555;" transform="translate(158.407394 310.174789)scale(0.1 -0.1)">
      <use xlink:href="#DejaVuSans-48"/>
      <use x="63.623047" xlink:href="#DejaVuSans-37"/>
     </g>
    </g>
   </g>
   <g id="xtick_4">
    <g id="line2d_8">
     <path clip-path="url(#pd05d40ed19)" d="M 236.335135 168.421622 
" style="fill:none;stroke:#ffffff;stroke-linecap:square;stroke-width:0.8;"/>
    </g>
    <g id="line2d_9">
     <path d="M 212.396448 296.846707 
L 209.315778 299.031783 
" style="fill:none;stroke:#555555;stroke-linecap:square;stroke-width:0.8;"/>
    </g>
    <g id="text_5">
     <!-- 10% -->
     <g style="fill:#555555;" transform="translate(192.900659 319.398284)scale(0.1 -0.1)">
      <use xlink:href="#DejaVuSans-49"/>
      <use x="63.623047" xlink:href="#DejaVuSans-48"/>
      <use x="127.246094" xlink:href="#DejaVuSans-37"/>
     </g>
    </g>
   </g>
   <g id="xtick_5">
    <g id="line2d_10">
     <path clip-path="url(#pd05d40ed19)" d="M 236.335135 168.421622 
" style="fill:none;stroke:#ffffff;stroke-linecap:square;stroke-width:0.8;"/>
    </g>
    <g id="line2d_11">
     <path d="M 250.666627 306.078273 
L 247.634929 308.298929 
" style="fill:none;stroke:#555555;stroke-linecap:square;stroke-width:0.8;"/>
    </g>
    <g id="text_6">
     <!-- 20% -->
     <g style="fill:#555555;" transform="translate(231.186914 328.771544)scale(0.1 -0.1)">
      <use xlink:href="#DejaVuSans-50"/>
      <use x="63.623047" xlink:href="#DejaVuSans-48"/>
      <use x="127.246094" xlink:href="#DejaVuSans-37"/>
     </g>
    </g>
   </g>
  </g>
  <g id="axis3d_2">
   <g id="line2d_12">
    <path d="M 398.348434 228.180625 
L 283.263076 314.930875 
" style="fill:none;stroke:#ffffff;stroke-linecap:square;"/>
   </g>
   <g id="text_7">
    <!-- Shift -->
    <defs>
     <path d="M 53.515625 70.515625 
L 53.515625 60.890625 
Q 47.90625 63.578125 42.921875 64.890625 
Q 37.9375 66.21875 33.296875 66.21875 
Q 25.25 66.21875 20.875 63.09375 
Q 16.5 59.96875 16.5 54.203125 
Q 16.5 49.359375 19.40625 46.890625 
Q 22.3125 44.4375 30.421875 42.921875 
L 36.375 41.703125 
Q 47.40625 39.59375 52.65625 34.296875 
Q 57.90625 29 57.90625 20.125 
Q 57.90625 9.515625 50.796875 4.046875 
Q 43.703125 -1.421875 29.984375 -1.421875 
Q 24.8125 -1.421875 18.96875 -0.25 
Q 13.140625 0.921875 6.890625 3.21875 
L 6.890625 13.375 
Q 12.890625 10.015625 18.65625 8.296875 
Q 24.421875 6.59375 29.984375 6.59375 
Q 38.421875 6.59375 43.015625 9.90625 
Q 47.609375 13.234375 47.609375 19.390625 
Q 47.609375 24.75 44.3125 27.78125 
Q 41.015625 30.8125 33.5 32.328125 
L 27.484375 33.5 
Q 16.453125 35.6875 11.515625 40.375 
Q 6.59375 45.0625 6.59375 53.421875 
Q 6.59375 63.09375 13.40625 68.65625 
Q 20.21875 74.21875 32.171875 74.21875 
Q 37.3125 74.21875 42.625 73.28125 
Q 47.953125 72.359375 53.515625 70.515625 
z
" id="DejaVuSans-83"/>
     <path d="M 54.890625 33.015625 
L 54.890625 0 
L 45.90625 0 
L 45.90625 32.71875 
Q 45.90625 40.484375 42.875 44.328125 
Q 39.84375 48.1875 33.796875 48.1875 
Q 26.515625 48.1875 22.3125 43.546875 
Q 18.109375 38.921875 18.109375 30.90625 
L 18.109375 0 
L 9.078125 0 
L 9.078125 75.984375 
L 18.109375 75.984375 
L 18.109375 46.1875 
Q 21.34375 51.125 25.703125 53.5625 
Q 30.078125 56 35.796875 56 
Q 45.21875 56 50.046875 50.171875 
Q 54.890625 44.34375 54.890625 33.015625 
z
" id="DejaVuSans-104"/>
     <path d="M 9.421875 54.6875 
L 18.40625 54.6875 
L 18.40625 0 
L 9.421875 0 
z
M 9.421875 75.984375 
L 18.40625 75.984375 
L 18.40625 64.59375 
L 9.421875 64.59375 
z
" id="DejaVuSans-105"/>
     <path d="M 37.109375 75.984375 
L 37.109375 68.5 
L 28.515625 68.5 
Q 23.6875 68.5 21.796875 66.546875 
Q 19.921875 64.59375 19.921875 59.515625 
L 19.921875 54.6875 
L 34.71875 54.6875 
L 34.71875 47.703125 
L 19.921875 47.703125 
L 19.921875 0 
L 10.890625 0 
L 10.890625 47.703125 
L 2.296875 47.703125 
L 2.296875 54.6875 
L 10.890625 54.6875 
L 10.890625 58.5 
Q 10.890625 67.625 15.140625 71.796875 
Q 19.390625 75.984375 28.609375 75.984375 
z
" id="DejaVuSans-102"/>
     <path d="M 18.3125 70.21875 
L 18.3125 54.6875 
L 36.8125 54.6875 
L 36.8125 47.703125 
L 18.3125 47.703125 
L 18.3125 18.015625 
Q 18.3125 11.328125 20.140625 9.421875 
Q 21.96875 7.515625 27.59375 7.515625 
L 36.8125 7.515625 
L 36.8125 0 
L 27.59375 0 
Q 17.1875 0 13.234375 3.875 
Q 9.28125 7.765625 9.28125 18.015625 
L 9.28125 47.703125 
L 2.6875 47.703125 
L 2.6875 54.6875 
L 9.28125 54.6875 
L 9.28125 70.21875 
z
" id="DejaVuSans-116"/>
    </defs>
    <g style="fill:#555555;" transform="translate(360.794069 306.193172)rotate(-37.00864)scale(0.12 -0.12)">
     <use xlink:href="#DejaVuSans-83"/>
     <use x="63.476562" xlink:href="#DejaVuSans-104"/>
     <use x="126.855469" xlink:href="#DejaVuSans-105"/>
     <use x="154.638672" xlink:href="#DejaVuSans-102"/>
     <use x="189.828125" xlink:href="#DejaVuSans-116"/>
    </g>
   </g>
   <g id="Line3DCollection_2">
    <path d="M 69.008379 98.463794 
L 77.598724 257.787796 
L 291.13935 308.993815 
" style="fill:none;stroke:#ffffff;stroke-width:0.8;"/>
    <path d="M 93.457822 85.314611 
L 100.695676 243.191585 
L 312.333908 293.017558 
" style="fill:none;stroke:#ffffff;stroke-width:0.8;"/>
    <path d="M 117.233517 72.527777 
L 123.187971 228.97749 
L 332.948502 277.478473 
" style="fill:none;stroke:#ffffff;stroke-width:0.8;"/>
    <path d="M 140.362935 60.088518 
L 145.099047 215.130699 
L 353.006616 262.358857 
" style="fill:none;stroke:#ffffff;stroke-width:0.8;"/>
    <path d="M 162.872075 47.982852 
L 166.451145 201.637156 
L 372.530482 247.641953 
" style="fill:none;stroke:#ffffff;stroke-width:0.8;"/>
    <path d="M 184.785558 36.197537 
L 187.265386 188.483514 
L 391.541164 233.311881 
" style="fill:none;stroke:#ffffff;stroke-width:0.8;"/>
   </g>
   <g id="xtick_6">
    <g id="line2d_13">
     <path clip-path="url(#pd05d40ed19)" d="M 236.335135 168.421622 
" style="fill:none;stroke:#ffffff;stroke-linecap:square;stroke-width:0.8;"/>
    </g>
    <g id="line2d_14">
     <path d="M 289.352203 308.565265 
L 294.717638 309.851871 
" style="fill:none;stroke:#555555;stroke-linecap:square;stroke-width:0.8;"/>
    </g>
    <g id="text_8">
     <!-- 0% -->
     <g style="fill:#555555;" transform="translate(295.962351 328.681144)scale(0.1 -0.1)">
      <use xlink:href="#DejaVuSans-48"/>
      <use x="63.623047" xlink:href="#DejaVuSans-37"/>
     </g>
    </g>
   </g>
   <g id="xtick_7">
    <g id="line2d_15">
     <path clip-path="url(#pd05d40ed19)" d="M 236.335135 168.421622 
" style="fill:none;stroke:#ffffff;stroke-linecap:square;stroke-width:0.8;"/>
    </g>
    <g id="line2d_16">
     <path d="M 310.563766 292.600813 
L 315.878095 293.851965 
" style="fill:none;stroke:#555555;stroke-linecap:square;stroke-width:0.8;"/>
    </g>
    <g id="text_9">
     <!-- 10% -->
     <g style="fill:#555555;" transform="translate(313.790097 312.543821)scale(0.1 -0.1)">
      <use xlink:href="#DejaVuSans-49"/>
      <use x="63.623047" xlink:href="#DejaVuSans-48"/>
      <use x="127.246094" xlink:href="#DejaVuSans-37"/>
     </g>
    </g>
   </g>
   <g id="xtick_8">
    <g id="line2d_17">
     <path clip-path="url(#pd05d40ed19)" d="M 236.335135 168.421622 
" style="fill:none;stroke:#ffffff;stroke-linecap:square;stroke-width:0.8;"/>
    </g>
    <g id="line2d_18">
     <path d="M 331.195109 277.073052 
L 336.4591 278.290196 
" style="fill:none;stroke:#555555;stroke-linecap:square;stroke-width:0.8;"/>
    </g>
    <g id="text_10">
     <!-- 20% -->
     <g style="fill:#555555;" transform="translate(334.224438 296.847899)scale(0.1 -0.1)">
      <use xlink:href="#DejaVuSans-50"/>
      <use x="63.623047" xlink:href="#DejaVuSans-48"/>
      <use x="127.246094" xlink:href="#DejaVuSans-37"/>
     </g>
    </g>
   </g>
   <g id="xtick_9">
    <g id="line2d_19">
     <path clip-path="url(#pd05d40ed19)" d="M 236.335135 168.421622 
" style="fill:none;stroke:#ffffff;stroke-linecap:square;stroke-width:0.8;"/>
    </g>
    <g id="line2d_20">
     <path d="M 351.269719 261.964305 
L 356.484135 263.148808 
" style="fill:none;stroke:#555555;stroke-linecap:square;stroke-width:0.8;"/>
    </g>
    <g id="text_11">
     <!-- 30% -->
     <defs>
      <path d="M 40.578125 39.3125 
Q 47.65625 37.796875 51.625 33 
Q 55.609375 28.21875 55.609375 21.1875 
Q 55.609375 10.40625 48.1875 4.484375 
Q 40.765625 -1.421875 27.09375 -1.421875 
Q 22.515625 -1.421875 17.65625 -0.515625 
Q 12.796875 0.390625 7.625 2.203125 
L 7.625 11.71875 
Q 11.71875 9.328125 16.59375 8.109375 
Q 21.484375 6.890625 26.8125 6.890625 
Q 36.078125 6.890625 40.9375 10.546875 
Q 45.796875 14.203125 45.796875 21.1875 
Q 45.796875 27.640625 41.28125 31.265625 
Q 36.765625 34.90625 28.71875 34.90625 
L 20.21875 34.90625 
L 20.21875 43.015625 
L 29.109375 43.015625 
Q 36.375 43.015625 40.234375 45.921875 
Q 44.09375 48.828125 44.09375 54.296875 
Q 44.09375 59.90625 40.109375 62.90625 
Q 36.140625 65.921875 28.71875 65.921875 
Q 24.65625 65.921875 20.015625 65.03125 
Q 15.375 64.15625 9.8125 62.3125 
L 9.8125 71.09375 
Q 15.4375 72.65625 20.34375 73.4375 
Q 25.25 74.21875 29.59375 74.21875 
Q 40.828125 74.21875 47.359375 69.109375 
Q 53.90625 64.015625 53.90625 55.328125 
Q 53.90625 49.265625 50.4375 45.09375 
Q 46.96875 40.921875 40.578125 39.3125 
z
" id="DejaVuSans-51"/>
     </defs>
     <g style="fill:#555555;" transform="translate(354.107386 281.575511)scale(0.1 -0.1)">
      <use xlink:href="#DejaVuSans-51"/>
      <use x="63.623047" xlink:href="#DejaVuSans-48"/>
      <use x="127.246094" xlink:href="#DejaVuSans-37"/>
     </g>
    </g>
   </g>
   <g id="xtick_10">
    <g id="line2d_21">
     <path clip-path="url(#pd05d40ed19)" d="M 236.335135 168.421622 
" style="fill:none;stroke:#ffffff;stroke-linecap:square;stroke-width:0.8;"/>
    </g>
    <g id="line2d_22">
     <path d="M 370.80983 247.257837 
L 375.975426 248.410996 
" style="fill:none;stroke:#555555;stroke-linecap:square;stroke-width:0.8;"/>
    </g>
    <g id="text_12">
     <!-- 40% -->
     <defs>
      <path d="M 37.796875 64.3125 
L 12.890625 25.390625 
L 37.796875 25.390625 
z
M 35.203125 72.90625 
L 47.609375 72.90625 
L 47.609375 25.390625 
L 58.015625 25.390625 
L 58.015625 17.1875 
L 47.609375 17.1875 
L 47.609375 0 
L 37.796875 0 
L 37.796875 17.1875 
L 4.890625 17.1875 
L 4.890625 26.703125 
z
" id="DejaVuSans-52"/>
     </defs>
     <g style="fill:#555555;" transform="translate(373.46096 266.709743)scale(0.1 -0.1)">
      <use xlink:href="#DejaVuSans-52"/>
      <use x="63.623047" xlink:href="#DejaVuSans-48"/>
      <use x="127.246094" xlink:href="#DejaVuSans-37"/>
     </g>
    </g>
   </g>
   <g id="xtick_11">
    <g id="line2d_23">
     <path clip-path="url(#pd05d40ed19)" d="M 236.335135 168.421622 
" style="fill:none;stroke:#ffffff;stroke-linecap:square;stroke-width:0.8;"/>
    </g>
    <g id="line2d_24">
     <path d="M 389.836508 232.937794 
L 394.954034 234.060836 
" style="fill:none;stroke:#555555;stroke-linecap:square;stroke-width:0.8;"/>
    </g>
    <g id="text_13">
     <!-- 50% -->
     <defs>
      <path d="M 10.796875 72.90625 
L 49.515625 72.90625 
L 49.515625 64.59375 
L 19.828125 64.59375 
L 19.828125 46.734375 
Q 21.96875 47.46875 24.109375 47.828125 
Q 26.265625 48.1875 28.421875 48.1875 
Q 40.625 48.1875 47.75 41.5 
Q 54.890625 34.8125 54.890625 23.390625 
Q 54.890625 11.625 47.5625 5.09375 
Q 40.234375 -1.421875 26.90625 -1.421875 
Q 22.3125 -1.421875 17.546875 -0.640625 
Q 12.796875 0.140625 7.71875 1.703125 
L 7.71875 11.625 
Q 12.109375 9.234375 16.796875 8.0625 
Q 21.484375 6.890625 26.703125 6.890625 
Q 35.15625 6.890625 40.078125 11.328125 
Q 45.015625 15.765625 45.015625 23.390625 
Q 45.015625 31 40.078125 35.4375 
Q 35.15625 39.890625 26.703125 39.890625 
Q 22.75 39.890625 18.8125 39.015625 
Q 14.890625 38.140625 10.796875 36.28125 
z
" id="DejaVuSans-53"/>
     </defs>
     <g style="fill:#555555;" transform="translate(392.306024 252.234568)scale(0.1 -0.1)">
      <use xlink:href="#DejaVuSans-53"/>
      <use x="63.623047" xlink:href="#DejaVuSans-48"/>
      <use x="127.246094" xlink:href="#DejaVuSans-37"/>
     </g>
    </g>
   </g>
  </g>
  <g id="axis3d_3">
   <g id="line2d_25">
    <path d="M 398.348434 228.180625 
L 406.867833 71.811455 
" style="fill:none;stroke:#ffffff;stroke-linecap:square;"/>
   </g>
   <g id="text_14">
    <!-- Cost Increase -->
    <defs>
     <path d="M 64.40625 67.28125 
L 64.40625 56.890625 
Q 59.421875 61.53125 53.78125 63.8125 
Q 48.140625 66.109375 41.796875 66.109375 
Q 29.296875 66.109375 22.65625 58.46875 
Q 16.015625 50.828125 16.015625 36.375 
Q 16.015625 21.96875 22.65625 14.328125 
Q 29.296875 6.6875 41.796875 6.6875 
Q 48.140625 6.6875 53.78125 8.984375 
Q 59.421875 11.28125 64.40625 15.921875 
L 64.40625 5.609375 
Q 59.234375 2.09375 53.4375 0.328125 
Q 47.65625 -1.421875 41.21875 -1.421875 
Q 24.65625 -1.421875 15.125 8.703125 
Q 5.609375 18.84375 5.609375 36.375 
Q 5.609375 53.953125 15.125 64.078125 
Q 24.65625 74.21875 41.21875 74.21875 
Q 47.75 74.21875 53.53125 72.484375 
Q 59.328125 70.75 64.40625 67.28125 
z
" id="DejaVuSans-67"/>
     <path d="M 30.609375 48.390625 
Q 23.390625 48.390625 19.1875 42.75 
Q 14.984375 37.109375 14.984375 27.296875 
Q 14.984375 17.484375 19.15625 11.84375 
Q 23.34375 6.203125 30.609375 6.203125 
Q 37.796875 6.203125 41.984375 11.859375 
Q 46.1875 17.53125 46.1875 27.296875 
Q 46.1875 37.015625 41.984375 42.703125 
Q 37.796875 48.390625 30.609375 48.390625 
z
M 30.609375 56 
Q 42.328125 56 49.015625 48.375 
Q 55.71875 40.765625 55.71875 27.296875 
Q 55.71875 13.875 49.015625 6.21875 
Q 42.328125 -1.421875 30.609375 -1.421875 
Q 18.84375 -1.421875 12.171875 6.21875 
Q 5.515625 13.875 5.515625 27.296875 
Q 5.515625 40.765625 12.171875 48.375 
Q 18.84375 56 30.609375 56 
z
" id="DejaVuSans-111"/>
     <path id="DejaVuSans-32"/>
     <path d="M 9.8125 72.90625 
L 19.671875 72.90625 
L 19.671875 0 
L 9.8125 0 
z
" id="DejaVuSans-73"/>
     <path d="M 54.890625 33.015625 
L 54.890625 0 
L 45.90625 0 
L 45.90625 32.71875 
Q 45.90625 40.484375 42.875 44.328125 
Q 39.84375 48.1875 33.796875 48.1875 
Q 26.515625 48.1875 22.3125 43.546875 
Q 18.109375 38.921875 18.109375 30.90625 
L 18.109375 0 
L 9.078125 0 
L 9.078125 54.6875 
L 18.109375 54.6875 
L 18.109375 46.1875 
Q 21.34375 51.125 25.703125 53.5625 
Q 30.078125 56 35.796875 56 
Q 45.21875 56 50.046875 50.171875 
Q 54.890625 44.34375 54.890625 33.015625 
z
" id="DejaVuSans-110"/>
     <path d="M 48.78125 52.59375 
L 48.78125 44.1875 
Q 44.96875 46.296875 41.140625 47.34375 
Q 37.3125 48.390625 33.40625 48.390625 
Q 24.65625 48.390625 19.8125 42.84375 
Q 14.984375 37.3125 14.984375 27.296875 
Q 14.984375 17.28125 19.8125 11.734375 
Q 24.65625 6.203125 33.40625 6.203125 
Q 37.3125 6.203125 41.140625 7.25 
Q 44.96875 8.296875 48.78125 10.40625 
L 48.78125 2.09375 
Q 45.015625 0.34375 40.984375 -0.53125 
Q 36.96875 -1.421875 32.421875 -1.421875 
Q 20.0625 -1.421875 12.78125 6.34375 
Q 5.515625 14.109375 5.515625 27.296875 
Q 5.515625 40.671875 12.859375 48.328125 
Q 20.21875 56 33.015625 56 
Q 37.15625 56 41.109375 55.140625 
Q 45.0625 54.296875 48.78125 52.59375 
z
" id="DejaVuSans-99"/>
     <path d="M 41.109375 46.296875 
Q 39.59375 47.171875 37.8125 47.578125 
Q 36.03125 48 33.890625 48 
Q 26.265625 48 22.1875 43.046875 
Q 18.109375 38.09375 18.109375 28.8125 
L 18.109375 0 
L 9.078125 0 
L 9.078125 54.6875 
L 18.109375 54.6875 
L 18.109375 46.1875 
Q 20.953125 51.171875 25.484375 53.578125 
Q 30.03125 56 36.53125 56 
Q 37.453125 56 38.578125 55.875 
Q 39.703125 55.765625 41.0625 55.515625 
z
" id="DejaVuSans-114"/>
     <path d="M 56.203125 29.59375 
L 56.203125 25.203125 
L 14.890625 25.203125 
Q 15.484375 15.921875 20.484375 11.0625 
Q 25.484375 6.203125 34.421875 6.203125 
Q 39.59375 6.203125 44.453125 7.46875 
Q 49.3125 8.734375 54.109375 11.28125 
L 54.109375 2.78125 
Q 49.265625 0.734375 44.1875 -0.34375 
Q 39.109375 -1.421875 33.890625 -1.421875 
Q 20.796875 -1.421875 13.15625 6.1875 
Q 5.515625 13.8125 5.515625 26.8125 
Q 5.515625 40.234375 12.765625 48.109375 
Q 20.015625 56 32.328125 56 
Q 43.359375 56 49.78125 48.890625 
Q 56.203125 41.796875 56.203125 29.59375 
z
M 47.21875 32.234375 
Q 47.125 39.59375 43.09375 43.984375 
Q 39.0625 48.390625 32.421875 48.390625 
Q 24.90625 48.390625 20.390625 44.140625 
Q 15.875 39.890625 15.1875 32.171875 
z
" id="DejaVuSans-101"/>
    </defs>
    <g style="fill:#555555;" transform="translate(444.54344 188.83909)rotate(-86.88146)scale(0.12 -0.12)">
     <use xlink:href="#DejaVuSans-67"/>
     <use x="69.824219" xlink:href="#DejaVuSans-111"/>
     <use x="131.005859" xlink:href="#DejaVuSans-115"/>
     <use x="183.105469" xlink:href="#DejaVuSans-116"/>
     <use x="222.314453" xlink:href="#DejaVuSans-32"/>
     <use x="254.101562" xlink:href="#DejaVuSans-73"/>
     <use x="283.59375" xlink:href="#DejaVuSans-110"/>
     <use x="346.972656" xlink:href="#DejaVuSans-99"/>
     <use x="401.953125" xlink:href="#DejaVuSans-114"/>
     <use x="443.035156" xlink:href="#DejaVuSans-101"/>
     <use x="504.558594" xlink:href="#DejaVuSans-97"/>
     <use x="565.837891" xlink:href="#DejaVuSans-115"/>
     <use x="617.9375" xlink:href="#DejaVuSans-101"/>
    </g>
   </g>
   <g id="Line3DCollection_3">
    <path d="M 398.510472 225.206507 
L 194.684195 180.876724 
L 68.84993 260.172102 
" style="fill:none;stroke:#ffffff;stroke-width:0.8;"/>
    <path d="M 400.082685 196.349343 
L 194.297326 152.816798 
L 67.172546 230.710832 
" style="fill:none;stroke:#ffffff;stroke-width:0.8;"/>
    <path d="M 401.685681 166.927188 
L 193.903202 124.230723 
L 65.461223 200.653476 
" style="fill:none;stroke:#ffffff;stroke-width:0.8;"/>
    <path d="M 403.320371 136.923286 
L 193.501619 95.10356 
L 63.714921 169.981758 
" style="fill:none;stroke:#ffffff;stroke-width:0.8;"/>
    <path d="M 404.987706 106.320211 
L 193.092361 65.4198 
L 61.932557 138.676648 
" style="fill:none;stroke:#ffffff;stroke-width:0.8;"/>
    <path d="M 406.688674 75.099833 
L 192.675208 35.163334 
L 60.113002 106.718321 
" style="fill:none;stroke:#ffffff;stroke-width:0.8;"/>
   </g>
   <g id="xtick_12">
    <g id="line2d_26">
     <path clip-path="url(#pd05d40ed19)" d="M 236.335135 168.421622 
" style="fill:none;stroke:#ffffff;stroke-linecap:square;stroke-width:0.8;"/>
    </g>
    <g id="line2d_27">
     <path d="M 396.809833 224.836638 
L 401.915288 225.947014 
" style="fill:none;stroke:#555555;stroke-linecap:square;stroke-width:0.8;"/>
    </g>
    <g id="text_15">
     <!-- 0% -->
     <g style="fill:#555555;" transform="translate(409.014584 230.849506)scale(0.1 -0.1)">
      <use xlink:href="#DejaVuSans-48"/>
      <use x="63.623047" xlink:href="#DejaVuSans-37"/>
     </g>
    </g>
   </g>
   <g id="xtick_13">
    <g id="line2d_28">
     <path clip-path="url(#pd05d40ed19)" d="M 236.335135 168.421622 
" style="fill:none;stroke:#ffffff;stroke-linecap:square;stroke-width:0.8;"/>
    </g>
    <g id="line2d_29">
     <path d="M 398.365015 195.985981 
L 403.521633 197.07683 
" style="fill:none;stroke:#555555;stroke-linecap:square;stroke-width:0.8;"/>
    </g>
    <g id="text_16">
     <!-- 5% -->
     <g style="fill:#555555;" transform="translate(410.76229 202.026771)scale(0.1 -0.1)">
      <use xlink:href="#DejaVuSans-53"/>
      <use x="63.623047" xlink:href="#DejaVuSans-37"/>
     </g>
    </g>
   </g>
   <g id="xtick_14">
    <g id="line2d_30">
     <path clip-path="url(#pd05d40ed19)" d="M 236.335135 168.421622 
" style="fill:none;stroke:#ffffff;stroke-linecap:square;stroke-width:0.8;"/>
    </g>
    <g id="line2d_31">
     <path d="M 399.950635 166.57066 
L 405.159451 167.641 
" style="fill:none;stroke:#555555;stroke-linecap:square;stroke-width:0.8;"/>
    </g>
    <g id="text_17">
     <!-- 10% -->
     <g style="fill:#555555;" transform="translate(409.3629 172.640772)scale(0.1 -0.1)">
      <use xlink:href="#DejaVuSans-49"/>
      <use x="63.623047" xlink:href="#DejaVuSans-48"/>
      <use x="127.246094" xlink:href="#DejaVuSans-37"/>
     </g>
    </g>
   </g>
   <g id="xtick_15">
    <g id="line2d_32">
     <path clip-path="url(#pd05d40ed19)" d="M 236.335135 168.421622 
" style="fill:none;stroke:#ffffff;stroke-linecap:square;stroke-width:0.8;"/>
    </g>
    <g id="line2d_33">
     <path d="M 401.567596 136.573934 
L 406.829676 137.622738 
" style="fill:none;stroke:#555555;stroke-linecap:square;stroke-width:0.8;"/>
    </g>
    <g id="text_18">
     <!-- 15% -->
     <g style="fill:#555555;" transform="translate(411.179926 142.674836)scale(0.1 -0.1)">
      <use xlink:href="#DejaVuSans-49"/>
      <use x="63.623047" xlink:href="#DejaVuSans-53"/>
      <use x="127.246094" xlink:href="#DejaVuSans-37"/>
     </g>
    </g>
   </g>
   <g id="xtick_16">
    <g id="line2d_34">
     <path clip-path="url(#pd05d40ed19)" d="M 236.335135 168.421622 
" style="fill:none;stroke:#ffffff;stroke-linecap:square;stroke-width:0.8;"/>
    </g>
    <g id="line2d_35">
     <path d="M 403.216836 105.978394 
L 408.533278 107.004583 
" style="fill:none;stroke:#555555;stroke-linecap:square;stroke-width:0.8;"/>
    </g>
    <g id="text_19">
     <!-- 20% -->
     <g style="fill:#555555;" transform="translate(413.033168 112.111625)scale(0.1 -0.1)">
      <use xlink:href="#DejaVuSans-50"/>
      <use x="63.623047" xlink:href="#DejaVuSans-48"/>
      <use x="127.246094" xlink:href="#DejaVuSans-37"/>
     </g>
    </g>
   </g>
   <g id="xtick_17">
    <g id="line2d_36">
     <path clip-path="url(#pd05d40ed19)" d="M 236.335135 168.421622 
" style="fill:none;stroke:#ffffff;stroke-linecap:square;stroke-width:0.8;"/>
    </g>
    <g id="line2d_37">
     <path d="M 404.89933 74.765928 
L 410.27127 75.768372 
" style="fill:none;stroke:#555555;stroke-linecap:square;stroke-width:0.8;"/>
    </g>
    <g id="text_20">
     <!-- 25% -->
     <g style="fill:#555555;" transform="translate(414.92372 80.9331)scale(0.1 -0.1)">
      <use xlink:href="#DejaVuSans-50"/>
      <use x="63.623047" xlink:href="#DejaVuSans-53"/>
      <use x="127.246094" xlink:href="#DejaVuSans-37"/>
     </g>
    </g>
   </g>
  </g>
  <g id="axes_1">
   <g id="line2d_38">
    <defs>
     <path d="M 0 1.5 
C 0.397805 1.5 0.77937 1.341951 1.06066 1.06066 
C 1.341951 0.77937 1.5 0.397805 1.5 0 
C 1.5 -0.397805 1.341951 -0.77937 1.06066 -1.06066 
C 0.77937 -1.341951 0.397805 -1.5 0 -1.5 
C -0.397805 -1.5 -0.77937 -1.341951 -1.06066 -1.06066 
C -1.341951 -0.77937 -1.5 -0.397805 -1.5 0 
C -1.5 0.397805 -1.341951 0.77937 -1.06066 1.06066 
C -0.77937 1.341951 -0.397805 1.5 0 1.5 
z
" id="mbfdf19fbcd" style="stroke:#6fa8de;stroke-opacity:0.8;"/>
    </defs>
    <g clip-path="url(#pd05d40ed19)">
     <use style="fill:#6fa8de;fill-opacity:0.8;stroke:#6fa8de;stroke-opacity:0.8;" x="181.884354" xlink:href="#mbfdf19fbcd" y="279.740136"/>
    </g>
   </g>
   <g id="Poly3DCollection_1">
    <path clip-path="url(#pd05d40ed19)" d="M 234.310823 123.294409 
L 216.433731 107.732037 
L 205.840099 106.45626 
z
" style="fill:#395773;fill-opacity:0.8;"/>
    <path clip-path="url(#pd05d40ed19)" d="M 252.190192 137.663041 
L 234.310823 123.294409 
L 241.918281 135.997012 
z
" style="fill:#3a5874;fill-opacity:0.8;"/>
    <path clip-path="url(#pd05d40ed19)" d="M 187.775995 89.418327 
L 216.433731 107.732037 
L 198.538204 90.96864 
z
" style="fill:#38546f;fill-opacity:0.8;"/>
    <path clip-path="url(#pd05d40ed19)" d="M 241.918281 135.997012 
L 270.092789 150.845651 
L 252.190192 137.663041 
z
" style="fill:#3c5b78;fill-opacity:0.8;"/>
    <path clip-path="url(#pd05d40ed19)" d="M 288.038857 162.905515 
L 270.092789 150.845651 
L 278.091054 160.712659 
z
" style="fill:#3d5c79;fill-opacity:0.8;"/>
    <path clip-path="url(#pd05d40ed19)" d="M 288.038857 162.905515 
L 278.091054 160.712659 
L 306.044972 174.017689 
z
" style="fill:#3e5e7c;fill-opacity:0.8;"/>
    <path clip-path="url(#pd05d40ed19)" d="M 205.840099 106.45626 
L 223.878269 121.861765 
L 234.310823 123.294409 
z
" style="fill:#395773;fill-opacity:0.8;"/>
    <path clip-path="url(#pd05d40ed19)" d="M 241.918281 135.997012 
L 234.310823 123.294409 
L 223.878269 121.861765 
z
" style="fill:#3b5a77;fill-opacity:0.8;"/>
    <path clip-path="url(#pd05d40ed19)" d="M 205.840099 106.45626 
L 216.433731 107.732037 
L 187.775995 89.418327 
z
" style="fill:#38546f;fill-opacity:0.8;"/>
    <path clip-path="url(#pd05d40ed19)" d="M 259.983303 148.78465 
L 270.092789 150.845651 
L 241.918281 135.997012 
z
" style="fill:#3c5b78;fill-opacity:0.8;"/>
    <path clip-path="url(#pd05d40ed19)" d="M 278.091054 160.712659 
L 270.092789 150.845651 
L 259.983303 148.78465 
z
" style="fill:#3d5d7b;fill-opacity:0.8;"/>
    <path clip-path="url(#pd05d40ed19)" d="M 324.142998 183.700295 
L 306.044972 174.017689 
L 314.504214 181.800484 
z
" style="fill:#416282;fill-opacity:0.8;"/>
    <path clip-path="url(#pd05d40ed19)" d="M 342.338937 192.551306 
L 324.142998 183.700295 
L 314.504214 181.800484 
z
" style="fill:#426484;fill-opacity:0.8;"/>
    <path clip-path="url(#pd05d40ed19)" d="M 306.044972 174.017689 
L 278.091054 160.712659 
L 296.257086 171.806685 
z
" style="fill:#3e5e7c;fill-opacity:0.8;"/>
    <path clip-path="url(#pd05d40ed19)" d="M 314.504214 181.800484 
L 306.044972 174.017689 
L 296.257086 171.806685 
z
" style="fill:#406180;fill-opacity:0.8;"/>
    <path clip-path="url(#pd05d40ed19)" d="M 195.09469 108.22794 
L 223.878269 121.861765 
L 205.840099 106.45626 
z
" style="fill:#3f5f7d;fill-opacity:0.8;"/>
    <path clip-path="url(#pd05d40ed19)" d="M 213.277185 123.513319 
L 241.918281 135.997012 
L 223.878269 121.861765 
z
" style="fill:#406180;fill-opacity:0.8;"/>
    <path clip-path="url(#pd05d40ed19)" d="M 205.840099 106.45626 
L 187.775995 89.418327 
L 195.09469 108.22794 
z
" style="fill:#3c5b78;fill-opacity:0.8;"/>
    <path clip-path="url(#pd05d40ed19)" d="M 351.284196 199.602992 
L 360.635142 200.912536 
L 342.338937 192.551306 
z
" style="fill:#446788;fill-opacity:0.8;"/>
    <path clip-path="url(#pd05d40ed19)" d="M 241.918281 135.997012 
L 249.668148 149.802186 
L 259.983303 148.78465 
z
" style="fill:#416282;fill-opacity:0.8;"/>
    <path clip-path="url(#pd05d40ed19)" d="M 332.837908 191.184137 
L 342.338937 192.551306 
L 314.504214 181.800484 
z
" style="fill:#426484;fill-opacity:0.8;"/>
    <path clip-path="url(#pd05d40ed19)" d="M 249.668148 149.802186 
L 278.091054 160.712659 
L 259.983303 148.78465 
z
" style="fill:#426585;fill-opacity:0.8;"/>
    <path clip-path="url(#pd05d40ed19)" d="M 351.284196 199.602992 
L 342.338937 192.551306 
L 332.837908 191.184137 
z
" style="fill:#446788;fill-opacity:0.8;"/>
    <path clip-path="url(#pd05d40ed19)" d="M 195.09469 108.22794 
L 213.277185 123.513319 
L 223.878269 121.861765 
z
" style="fill:#3f5f7d;fill-opacity:0.8;"/>
    <path clip-path="url(#pd05d40ed19)" d="M 379.061815 208.369325 
L 360.635142 200.912536 
L 369.875928 206.75563 
z
" style="fill:#45688a;fill-opacity:0.8;"/>
    <path clip-path="url(#pd05d40ed19)" d="M 195.09469 108.22794 
L 187.775995 89.418327 
L 176.880329 91.151114 
z
" style="fill:#3c5b79;fill-opacity:0.8;"/>
    <path clip-path="url(#pd05d40ed19)" d="M 231.459831 137.378744 
L 241.918281 135.997012 
L 213.277185 123.513319 
z
" style="fill:#406180;fill-opacity:0.8;"/>
    <path clip-path="url(#pd05d40ed19)" d="M 231.459831 137.378744 
L 249.668148 149.802186 
L 241.918281 135.997012 
z
" style="fill:#436585;fill-opacity:0.8;"/>
    <path clip-path="url(#pd05d40ed19)" d="M 296.257086 171.806685 
L 278.091054 160.712659 
L 286.25066 171.357598 
z
" style="fill:#416382;fill-opacity:0.8;"/>
    <path clip-path="url(#pd05d40ed19)" d="M 296.257086 171.806685 
L 286.25066 171.357598 
L 314.504214 181.800484 
z
" style="fill:#436586;fill-opacity:0.8;"/>
    <path clip-path="url(#pd05d40ed19)" d="M 267.925507 161.069672 
L 278.091054 160.712659 
L 249.668148 149.802186 
z
" style="fill:#426585;fill-opacity:0.8;"/>
    <path clip-path="url(#pd05d40ed19)" d="M 360.635142 200.912536 
L 351.284196 199.602992 
L 369.875928 206.75563 
z
" style="fill:#466a8c;fill-opacity:0.8;"/>
    <path clip-path="url(#pd05d40ed19)" d="M 286.25066 171.357598 
L 278.091054 160.712659 
L 267.925507 161.069672 
z
" style="fill:#446788;fill-opacity:0.8;"/>
    <path clip-path="url(#pd05d40ed19)" d="M 314.504214 181.800484 
L 323.174393 189.195702 
L 332.837908 191.184137 
z
" style="fill:#416383;fill-opacity:0.8;"/>
    <path clip-path="url(#pd05d40ed19)" d="M 213.277185 123.513319 
L 195.09469 108.22794 
L 202.552759 129.867634 
z
" style="fill:#466a8c;fill-opacity:0.8;"/>
    <path clip-path="url(#pd05d40ed19)" d="M 195.09469 108.22794 
L 176.880329 91.151114 
L 165.946426 99.039187 
z
" style="fill:#46698b;fill-opacity:0.8;"/>
    <path clip-path="url(#pd05d40ed19)" d="M 231.459831 137.378744 
L 213.277185 123.513319 
L 202.552759 129.867634 
z
" style="fill:#486d91;fill-opacity:0.8;"/>
    <path clip-path="url(#pd05d40ed19)" d="M 314.504214 181.800484 
L 286.25066 171.357598 
L 304.662527 180.663436 
z
" style="fill:#436586;fill-opacity:0.8;"/>
    <path clip-path="url(#pd05d40ed19)" d="M 220.848125 143.113151 
L 249.668148 149.802186 
L 231.459831 137.378744 
z
" style="fill:#4a6f93;fill-opacity:0.8;"/>
    <path clip-path="url(#pd05d40ed19)" d="M 332.837908 191.184137 
L 323.174393 189.195702 
L 351.284196 199.602992 
z
" style="fill:#436586;fill-opacity:0.8;"/>
    <path clip-path="url(#pd05d40ed19)" d="M 165.946426 99.039187 
L 184.262487 115.279893 
L 195.09469 108.22794 
z
" style="fill:#466a8c;fill-opacity:0.8;"/>
    <path clip-path="url(#pd05d40ed19)" d="M 202.552759 129.867634 
L 195.09469 108.22794 
L 184.262487 115.279893 
z
" style="fill:#486e91;fill-opacity:0.8;"/>
    <path clip-path="url(#pd05d40ed19)" d="M 314.504214 181.800484 
L 304.662527 180.663436 
L 323.174393 189.195702 
z
" style="fill:#446789;fill-opacity:0.8;"/>
    <path clip-path="url(#pd05d40ed19)" d="M 202.552759 129.867634 
L 220.848125 143.113151 
L 231.459831 137.378744 
z
" style="fill:#486d91;fill-opacity:0.8;"/>
    <path clip-path="url(#pd05d40ed19)" d="M 267.925507 161.069672 
L 249.668148 149.802186 
L 257.549452 165.930995 
z
" style="fill:#4a7094;fill-opacity:0.8;"/>
    <path clip-path="url(#pd05d40ed19)" d="M 239.172765 155.165976 
L 249.668148 149.802186 
L 220.848125 143.113151 
z
" style="fill:#4a6f93;fill-opacity:0.8;"/>
    <path clip-path="url(#pd05d40ed19)" d="M 369.875928 206.75563 
L 351.284196 199.602992 
L 341.801495 196.96974 
z
" style="fill:#446788;fill-opacity:0.8;"/>
    <path clip-path="url(#pd05d40ed19)" d="M 276.002163 175.433267 
L 286.25066 171.357598 
L 267.925507 161.069672 
z
" style="fill:#4a7094;fill-opacity:0.8;"/>
    <path clip-path="url(#pd05d40ed19)" d="M 257.549452 165.930995 
L 249.668148 149.802186 
L 239.172765 155.165976 
z
" style="fill:#4c7398;fill-opacity:0.8;"/>
    <path clip-path="url(#pd05d40ed19)" d="M 351.284196 199.602992 
L 323.174393 189.195702 
L 341.801495 196.96974 
z
" style="fill:#436586;fill-opacity:0.8;"/>
    <path clip-path="url(#pd05d40ed19)" d="M 165.946426 99.039187 
L 155.045945 113.432763 
L 184.262487 115.279893 
z
" style="fill:#517aa1;fill-opacity:0.8;"/>
    <path clip-path="url(#pd05d40ed19)" d="M 304.662527 180.663436 
L 286.25066 171.357598 
L 276.002163 175.433267 
z
" style="fill:#4c7398;fill-opacity:0.8;"/>
    <path clip-path="url(#pd05d40ed19)" d="M 202.552759 129.867634 
L 184.262487 115.279893 
L 173.418148 128.698883 
z
" style="fill:#527ca4;fill-opacity:0.8;"/>
    <path clip-path="url(#pd05d40ed19)" d="M 267.925507 161.069672 
L 257.549452 165.930995 
L 276.002163 175.433267 
z
" style="fill:#4d759a;fill-opacity:0.8;"/>
    <path clip-path="url(#pd05d40ed19)" d="M 210.138934 154.864937 
L 220.848125 143.113151 
L 202.552759 129.867634 
z
" style="fill:#527ca3;fill-opacity:0.8;"/>
    <path clip-path="url(#pd05d40ed19)" d="M 184.262487 115.279893 
L 155.045945 113.432763 
L 173.418148 128.698883 
z
" style="fill:#517ba2;fill-opacity:0.8;"/>
    <path clip-path="url(#pd05d40ed19)" d="M 202.552759 129.867634 
L 173.418148 128.698883 
L 191.772943 142.453013 
z
" style="fill:#527da5;fill-opacity:0.8;"/>
    <path clip-path="url(#pd05d40ed19)" d="M 220.848125 143.113151 
L 228.54092 165.999771 
L 239.172765 155.165976 
z
" style="fill:#527da5;fill-opacity:0.8;"/>
    <path clip-path="url(#pd05d40ed19)" d="M 323.174393 189.195702 
L 304.662527 180.663436 
L 294.551336 183.875895 
z
" style="fill:#4c7398;fill-opacity:0.8;"/>
    <path clip-path="url(#pd05d40ed19)" d="M 191.772943 142.453013 
L 210.138934 154.864937 
L 202.552759 129.867634 
z
" style="fill:#5580a9;fill-opacity:0.8;"/>
    <path clip-path="url(#pd05d40ed19)" d="M 341.801495 196.96974 
L 360.564639 203.865029 
L 369.875928 206.75563 
z
" style="fill:#446788;fill-opacity:0.8;"/>
    <path clip-path="url(#pd05d40ed19)" d="M 228.54092 165.999771 
L 257.549452 165.930995 
L 239.172765 155.165976 
z
" style="fill:#5580a9;fill-opacity:0.8;"/>
    <path clip-path="url(#pd05d40ed19)" d="M 276.002163 175.433267 
L 294.551336 183.875895 
L 304.662527 180.663436 
z
" style="fill:#4c7398;fill-opacity:0.8;"/>
    <path clip-path="url(#pd05d40ed19)" d="M 210.138934 154.864937 
L 228.54092 165.999771 
L 220.848125 143.113151 
z
" style="fill:#5682ab;fill-opacity:0.8;"/>
    <path clip-path="url(#pd05d40ed19)" d="M 173.418148 128.698883 
L 155.045945 113.432763 
L 162.613003 147.867674 
z
" style="fill:#5886b1;fill-opacity:0.8;"/>
    <path clip-path="url(#pd05d40ed19)" d="M 191.772943 142.453013 
L 173.418148 128.698883 
L 162.613003 147.867674 
z
" style="fill:#5b8ab6;fill-opacity:0.8;"/>
    <path clip-path="url(#pd05d40ed19)" d="M 162.613003 147.867674 
L 155.045945 113.432763 
L 144.221628 133.472418 
z
" style="fill:#5b8ab6;fill-opacity:0.8;"/>
    <path clip-path="url(#pd05d40ed19)" d="M 180.989483 160.59708 
L 210.138934 154.864937 
L 191.772943 142.453013 
z
" style="fill:#5c8bb8;fill-opacity:0.8;"/>
    <path clip-path="url(#pd05d40ed19)" d="M 257.549452 165.930995 
L 247.002635 175.921161 
L 276.002163 175.433267 
z
" style="fill:#5682ab;fill-opacity:0.8;"/>
    <path clip-path="url(#pd05d40ed19)" d="M 162.613003 147.867674 
L 180.989483 160.59708 
L 191.772943 142.453013 
z
" style="fill:#5c8bb7;fill-opacity:0.8;"/>
    <path clip-path="url(#pd05d40ed19)" d="M 228.54092 165.999771 
L 247.002635 175.921161 
L 257.549452 165.930995 
z
" style="fill:#5580aa;fill-opacity:0.8;"/>
    <path clip-path="url(#pd05d40ed19)" d="M 144.221628 133.472418 
L 133.502727 158.210157 
L 162.613003 147.867674 
z
" style="fill:#6091c0;fill-opacity:0.8;"/>
    <path clip-path="url(#pd05d40ed19)" d="M 313.216772 191.307929 
L 323.174393 189.195702 
L 294.551336 183.875895 
z
" style="fill:#4c7398;fill-opacity:0.8;"/>
    <path clip-path="url(#pd05d40ed19)" d="M 341.801495 196.96974 
L 323.174393 189.195702 
L 332.013586 197.900618 
z
" style="fill:#496e92;fill-opacity:0.8;"/>
    <path clip-path="url(#pd05d40ed19)" d="M 133.502727 158.210157 
L 151.872797 171.496377 
L 162.613003 147.867674 
z
" style="fill:#6193c2;fill-opacity:0.8;"/>
    <path clip-path="url(#pd05d40ed19)" d="M 199.38736 172.156885 
L 228.54092 165.999771 
L 210.138934 154.864937 
z
" style="fill:#5d8dbb;fill-opacity:0.8;"/>
    <path clip-path="url(#pd05d40ed19)" d="M 133.502727 158.210157 
L 122.821977 184.459983 
L 151.872797 171.496377 
z
" style="fill:#6396c7;fill-opacity:0.8;"/>
    <path clip-path="url(#pd05d40ed19)" d="M 180.989483 160.59708 
L 199.38736 172.156885 
L 210.138934 154.864937 
z
" style="fill:#5d8cb9;fill-opacity:0.8;"/>
    <path clip-path="url(#pd05d40ed19)" d="M 180.989483 160.59708 
L 162.613003 147.867674 
L 170.239793 183.321753 
z
" style="fill:#6192c2;fill-opacity:0.8;"/>
    <path clip-path="url(#pd05d40ed19)" d="M 170.239793 183.321753 
L 162.613003 147.867674 
L 151.872797 171.496377 
z
" style="fill:#6396c7;fill-opacity:0.8;"/>
    <path clip-path="url(#pd05d40ed19)" d="M 151.872797 171.496377 
L 122.821977 184.459983 
L 141.156539 196.736425 
z
" style="fill:#6497c8;fill-opacity:0.8;"/>
    <path clip-path="url(#pd05d40ed19)" d="M 170.239793 183.321753 
L 151.872797 171.496377 
L 141.156539 196.736425 
z
" style="fill:#6599ca;fill-opacity:0.8;"/>
    <path clip-path="url(#pd05d40ed19)" d="M 199.38736 172.156885 
L 180.989483 160.59708 
L 170.239793 183.321753 
z
" style="fill:#6396c6;fill-opacity:0.8;"/>
    <path clip-path="url(#pd05d40ed19)" d="M 141.156539 196.736425 
L 122.821977 184.459983 
L 130.314699 218.87524 
z
" style="fill:#6193c2;fill-opacity:0.8;"/>
    <path clip-path="url(#pd05d40ed19)" d="M 247.002635 175.921161 
L 265.546973 184.668622 
L 276.002163 175.433267 
z
" style="fill:#5682ab;fill-opacity:0.8;"/>
    <path clip-path="url(#pd05d40ed19)" d="M 130.314699 218.87524 
L 122.821977 184.459983 
L 112.011478 207.764257 
z
" style="fill:#6498c9;fill-opacity:0.8;"/>
    <path clip-path="url(#pd05d40ed19)" d="M 332.013586 197.900618 
L 360.564639 203.865029 
L 341.801495 196.96974 
z
" style="fill:#4b7195;fill-opacity:0.8;"/>
    <path clip-path="url(#pd05d40ed19)" d="M 332.013586 197.900618 
L 323.174393 189.195702 
L 313.216772 191.307929 
z
" style="fill:#4d759b;fill-opacity:0.8;"/>
    <path clip-path="url(#pd05d40ed19)" d="M 217.827477 182.38394 
L 228.54092 165.999771 
L 199.38736 172.156885 
z
" style="fill:#5e8ebb;fill-opacity:0.8;"/>
    <path clip-path="url(#pd05d40ed19)" d="M 294.551336 183.875895 
L 276.002163 175.433267 
L 284.195577 192.329919 
z
" style="fill:#5580aa;fill-opacity:0.8;"/>
    <path clip-path="url(#pd05d40ed19)" d="M 141.156539 196.736425 
L 159.495634 207.580993 
L 170.239793 183.321753 
z
" style="fill:#669acb;fill-opacity:0.8;"/>
    <path clip-path="url(#pd05d40ed19)" d="M 188.635034 193.963832 
L 199.38736 172.156885 
L 170.239793 183.321753 
z
" style="fill:#6397c7;fill-opacity:0.8;"/>
    <path clip-path="url(#pd05d40ed19)" d="M 236.335137 191.499975 
L 247.002635 175.921161 
L 228.54092 165.999771 
z
" style="fill:#5d8dba;fill-opacity:0.8;"/>
    <path clip-path="url(#pd05d40ed19)" d="M 112.011478 207.764257 
L 101.043711 228.294678 
L 130.314699 218.87524 
z
" style="fill:#6193c2;fill-opacity:0.8;"/>
    <path clip-path="url(#pd05d40ed19)" d="M 148.636825 228.733593 
L 159.495634 207.580993 
L 141.156539 196.736425 
z
" style="fill:#6295c5;fill-opacity:0.8;"/>
    <path clip-path="url(#pd05d40ed19)" d="M 141.156539 196.736425 
L 130.314699 218.87524 
L 148.636825 228.733593 
z
" style="fill:#6599ca;fill-opacity:0.8;"/>
    <path clip-path="url(#pd05d40ed19)" d="M 228.54092 165.999771 
L 217.827477 182.38394 
L 236.335137 191.499975 
z
" style="fill:#6091c0;fill-opacity:0.8;"/>
    <path clip-path="url(#pd05d40ed19)" d="M 284.195577 192.329919 
L 276.002163 175.433267 
L 265.546973 184.668622 
z
" style="fill:#5885b0;fill-opacity:0.8;"/>
    <path clip-path="url(#pd05d40ed19)" d="M 170.239793 183.321753 
L 159.495634 207.580993 
L 177.872172 217.308424 
z
" style="fill:#679dcf;fill-opacity:0.8;"/>
    <path clip-path="url(#pd05d40ed19)" d="M 170.239793 183.321753 
L 177.872172 217.308424 
L 188.635034 193.963832 
z
" style="fill:#6599ca;fill-opacity:0.8;"/>
    <path clip-path="url(#pd05d40ed19)" d="M 188.635034 193.963832 
L 207.080877 203.417713 
L 199.38736 172.156885 
z
" style="fill:#669acb;fill-opacity:0.8;"/>
    <path clip-path="url(#pd05d40ed19)" d="M 199.38736 172.156885 
L 207.080877 203.417713 
L 217.827477 182.38394 
z
" style="fill:#6396c6;fill-opacity:0.8;"/>
    <path clip-path="url(#pd05d40ed19)" d="M 313.216772 191.307929 
L 294.551336 183.875895 
L 284.195577 192.329919 
z
" style="fill:#5783ad;fill-opacity:0.8;"/>
    <path clip-path="url(#pd05d40ed19)" d="M 265.546973 184.668622 
L 247.002635 175.921161 
L 236.335137 191.499975 
z
" style="fill:#5f90be;fill-opacity:0.8;"/>
    <path clip-path="url(#pd05d40ed19)" d="M 130.314699 218.87524 
L 101.043711 228.294678 
L 119.331115 238.442943 
z
" style="fill:#6294c4;fill-opacity:0.8;"/>
    <path clip-path="url(#pd05d40ed19)" d="M 177.872172 217.308424 
L 159.495634 207.580993 
L 148.636825 228.733593 
z
" style="fill:#6498c9;fill-opacity:0.8;"/>
    <path clip-path="url(#pd05d40ed19)" d="M 148.636825 228.733593 
L 130.314699 218.87524 
L 119.331115 238.442943 
z
" style="fill:#6295c5;fill-opacity:0.8;"/>
    <path clip-path="url(#pd05d40ed19)" d="M 188.635034 193.963832 
L 177.872172 217.308424 
L 196.309251 226.036124 
z
" style="fill:#689ed1;fill-opacity:0.8;"/>
    <path clip-path="url(#pd05d40ed19)" d="M 196.309251 226.036124 
L 207.080877 203.417713 
L 188.635034 193.963832 
z
" style="fill:#669bcc;fill-opacity:0.8;"/>
    <path clip-path="url(#pd05d40ed19)" d="M 350.963808 203.541379 
L 360.564639 203.865029 
L 332.013586 197.900618 
z
" style="fill:#4b7195;fill-opacity:0.8;"/>
    <path clip-path="url(#pd05d40ed19)" d="M 167.004407 237.454689 
L 177.872172 217.308424 
L 148.636825 228.733593 
z
" style="fill:#6599ca;fill-opacity:0.8;"/>
    <path clip-path="url(#pd05d40ed19)" d="M 217.827477 182.38394 
L 207.080877 203.417713 
L 225.600464 211.73125 
z
" style="fill:#679bcd;fill-opacity:0.8;"/>
    <path clip-path="url(#pd05d40ed19)" d="M 236.335137 191.499975 
L 217.827477 182.38394 
L 225.600464 211.73125 
z
" style="fill:#6498c8;fill-opacity:0.8;"/>
    <path clip-path="url(#pd05d40ed19)" d="M 236.335137 191.499975 
L 254.932196 199.481174 
L 265.546973 184.668622 
z
" style="fill:#6091bf;fill-opacity:0.8;"/>
    <path clip-path="url(#pd05d40ed19)" d="M 119.331115 238.442943 
L 137.643142 247.28316 
L 148.636825 228.733593 
z
" style="fill:#6396c6;fill-opacity:0.8;"/>
    <path clip-path="url(#pd05d40ed19)" d="M 101.043711 228.294678 
L 108.14242 254.720503 
L 119.331115 238.442943 
z
" style="fill:#5d8dbb;fill-opacity:0.8;"/>
    <path clip-path="url(#pd05d40ed19)" d="M 196.309251 226.036124 
L 177.872172 217.308424 
L 167.004407 237.454689 
z
" style="fill:#6599ca;fill-opacity:0.8;"/>
    <path clip-path="url(#pd05d40ed19)" d="M 284.195577 192.329919 
L 265.546973 184.668622 
L 254.932196 199.481174 
z
" style="fill:#6091c0;fill-opacity:0.8;"/>
    <path clip-path="url(#pd05d40ed19)" d="M 313.216772 191.307929 
L 302.970939 198.87665 
L 332.013586 197.900618 
z
" style="fill:#5783ad;fill-opacity:0.8;"/>
    <path clip-path="url(#pd05d40ed19)" d="M 89.865418 245.67379 
L 108.14242 254.720503 
L 101.043711 228.294678 
z
" style="fill:#6193c2;fill-opacity:0.8;"/>
    <path clip-path="url(#pd05d40ed19)" d="M 284.195577 192.329919 
L 302.970939 198.87665 
L 313.216772 191.307929 
z
" style="fill:#5783ae;fill-opacity:0.8;"/>
    <path clip-path="url(#pd05d40ed19)" d="M 196.309251 226.036124 
L 225.600464 211.73125 
L 207.080877 203.417713 
z
" style="fill:#689ed0;fill-opacity:0.8;"/>
    <path clip-path="url(#pd05d40ed19)" d="M 148.636825 228.733593 
L 156.009701 254.987331 
L 167.004407 237.454689 
z
" style="fill:#6294c3;fill-opacity:0.8;"/>
    <path clip-path="url(#pd05d40ed19)" d="M 148.636825 228.733593 
L 137.643142 247.28316 
L 156.009701 254.987331 
z
" style="fill:#6599ca;fill-opacity:0.8;"/>
    <path clip-path="url(#pd05d40ed19)" d="M 167.004407 237.454689 
L 185.441463 245.142505 
L 196.309251 226.036124 
z
" style="fill:#669acb;fill-opacity:0.8;"/>
    <path clip-path="url(#pd05d40ed19)" d="M 236.335137 191.499975 
L 225.600464 211.73125 
L 244.215889 219.080702 
z
" style="fill:#679dcf;fill-opacity:0.8;"/>
    <path clip-path="url(#pd05d40ed19)" d="M 244.215889 219.080702 
L 254.932196 199.481174 
L 236.335137 191.499975 
z
" style="fill:#659acb;fill-opacity:0.8;"/>
    <path clip-path="url(#pd05d40ed19)" d="M 196.309251 226.036124 
L 214.826438 233.732985 
L 225.600464 211.73125 
z
" style="fill:#699ed1;fill-opacity:0.8;"/>
    <path clip-path="url(#pd05d40ed19)" d="M 126.458288 262.591 
L 137.643142 247.28316 
L 119.331115 238.442943 
z
" style="fill:#5e8fbd;fill-opacity:0.8;"/>
    <path clip-path="url(#pd05d40ed19)" d="M 284.195577 192.329919 
L 254.932196 199.481174 
L 273.641135 206.339309 
z
" style="fill:#6092c1;fill-opacity:0.8;"/>
    <path clip-path="url(#pd05d40ed19)" d="M 119.331115 238.442943 
L 108.14242 254.720503 
L 126.458288 262.591 
z
" style="fill:#6294c4;fill-opacity:0.8;"/>
    <path clip-path="url(#pd05d40ed19)" d="M 156.009701 254.987331 
L 185.441463 245.142505 
L 167.004407 237.454689 
z
" style="fill:#6497c7;fill-opacity:0.8;"/>
    <path clip-path="url(#pd05d40ed19)" d="M 214.826438 233.732985 
L 244.215889 219.080702 
L 225.600464 211.73125 
z
" style="fill:#699fd2;fill-opacity:0.8;"/>
    <path clip-path="url(#pd05d40ed19)" d="M 332.013586 197.900618 
L 302.970939 198.87665 
L 321.895637 204.319098 
z
" style="fill:#5783ad;fill-opacity:0.8;"/>
    <path clip-path="url(#pd05d40ed19)" d="M 203.970261 251.934343 
L 214.826438 233.732985 
L 196.309251 226.036124 
z
" style="fill:#6498c9;fill-opacity:0.8;"/>
    <path clip-path="url(#pd05d40ed19)" d="M 196.309251 226.036124 
L 185.441463 245.142505 
L 203.970261 251.934343 
z
" style="fill:#679cce;fill-opacity:0.8;"/>
    <path clip-path="url(#pd05d40ed19)" d="M 156.009701 254.987331 
L 137.643142 247.28316 
L 126.458288 262.591 
z
" style="fill:#6192c1;fill-opacity:0.8;"/>
    <path clip-path="url(#pd05d40ed19)" d="M 273.641135 206.339309 
L 254.932196 199.481174 
L 244.215889 219.080702 
z
" style="fill:#679dcf;fill-opacity:0.8;"/>
    <path clip-path="url(#pd05d40ed19)" d="M 284.195577 192.329919 
L 292.486907 211.964005 
L 302.970939 198.87665 
z
" style="fill:#5f90bf;fill-opacity:0.8;"/>
    <path clip-path="url(#pd05d40ed19)" d="M 273.641135 206.339309 
L 292.486907 211.964005 
L 284.195577 192.329919 
z
" style="fill:#6395c5;fill-opacity:0.8;"/>
    <path clip-path="url(#pd05d40ed19)" d="M 332.013586 197.900618 
L 340.992645 208.662634 
L 350.963808 203.541379 
z
" style="fill:#547fa8;fill-opacity:0.8;"/>
    <path clip-path="url(#pd05d40ed19)" d="M 233.444547 240.411338 
L 244.215889 219.080702 
L 214.826438 233.732985 
z
" style="fill:#6aa0d3;fill-opacity:0.8;"/>
    <path clip-path="url(#pd05d40ed19)" d="M 174.456641 261.711701 
L 185.441463 245.142505 
L 156.009701 254.987331 
z
" style="fill:#6497c8;fill-opacity:0.8;"/>
    <path clip-path="url(#pd05d40ed19)" d="M 244.215889 219.080702 
L 262.949041 225.223373 
L 273.641135 206.339309 
z
" style="fill:#689dd0;fill-opacity:0.8;"/>
    <path clip-path="url(#pd05d40ed19)" d="M 321.895637 204.319098 
L 340.992645 208.662634 
L 332.013586 197.900618 
z
" style="fill:#5986b1;fill-opacity:0.8;"/>
    <path clip-path="url(#pd05d40ed19)" d="M 144.837143 269.315999 
L 156.009701 254.987331 
L 126.458288 262.591 
z
" style="fill:#6193c2;fill-opacity:0.8;"/>
    <path clip-path="url(#pd05d40ed19)" d="M 214.826438 233.732985 
L 222.609283 257.803554 
L 233.444547 240.411338 
z
" style="fill:#6599ca;fill-opacity:0.8;"/>
    <path clip-path="url(#pd05d40ed19)" d="M 203.970261 251.934343 
L 222.609283 257.803554 
L 214.826438 233.732985 
z
" style="fill:#689dcf;fill-opacity:0.8;"/>
    <path clip-path="url(#pd05d40ed19)" d="M 185.441463 245.142505 
L 193.005734 267.568943 
L 203.970261 251.934343 
z
" style="fill:#6395c5;fill-opacity:0.8;"/>
    <path clip-path="url(#pd05d40ed19)" d="M 273.641135 206.339309 
L 262.949041 225.223373 
L 292.486907 211.964005 
z
" style="fill:#699ed1;fill-opacity:0.8;"/>
    <path clip-path="url(#pd05d40ed19)" d="M 252.184598 246.071545 
L 244.215889 219.080702 
L 233.444547 240.411338 
z
" style="fill:#6ba3d7;fill-opacity:0.8;"/>
    <path clip-path="url(#pd05d40ed19)" d="M 174.456641 261.711701 
L 193.005734 267.568943 
L 185.441463 245.142505 
z
" style="fill:#669acb;fill-opacity:0.8;"/>
    <path clip-path="url(#pd05d40ed19)" d="M 262.949041 225.223373 
L 244.215889 219.080702 
L 252.184598 246.071545 
z
" style="fill:#6aa0d4;fill-opacity:0.8;"/>
    <path clip-path="url(#pd05d40ed19)" d="M 321.895637 204.319098 
L 302.970939 198.87665 
L 311.492369 216.459854 
z
" style="fill:#6091c0;fill-opacity:0.8;"/>
    <path clip-path="url(#pd05d40ed19)" d="M 156.009701 254.987331 
L 163.303647 274.958302 
L 174.456641 261.711701 
z
" style="fill:#5f90be;fill-opacity:0.8;"/>
    <path clip-path="url(#pd05d40ed19)" d="M 302.970939 198.87665 
L 292.486907 211.964005 
L 311.492369 216.459854 
z
" style="fill:#6396c6;fill-opacity:0.8;"/>
    <path clip-path="url(#pd05d40ed19)" d="M 144.837143 269.315999 
L 163.303647 274.958302 
L 156.009701 254.987331 
z
" style="fill:#6396c6;fill-opacity:0.8;"/>
    <path clip-path="url(#pd05d40ed19)" d="M 233.444547 240.411338 
L 222.609283 257.803554 
L 252.184598 246.071545 
z
" style="fill:#679cce;fill-opacity:0.8;"/>
    <path clip-path="url(#pd05d40ed19)" d="M 292.486907 211.964005 
L 262.949041 225.223373 
L 281.824029 230.202921 
z
" style="fill:#699fd2;fill-opacity:0.8;"/>
    <path clip-path="url(#pd05d40ed19)" d="M 281.824029 230.202921 
L 262.949041 225.223373 
L 252.184598 246.071545 
z
" style="fill:#6ca3d8;fill-opacity:0.8;"/>
    <path clip-path="url(#pd05d40ed19)" d="M 311.492369 216.459854 
L 340.992645 208.662634 
L 321.895637 204.319098 
z
" style="fill:#6294c4;fill-opacity:0.8;"/>
    <path clip-path="url(#pd05d40ed19)" d="M 174.456641 261.711701 
L 163.303647 274.958302 
L 193.005734 267.568943 
z
" style="fill:#6192c2;fill-opacity:0.8;"/>
    <path clip-path="url(#pd05d40ed19)" d="M 211.675122 272.528447 
L 222.609283 257.803554 
L 203.970261 251.934343 
z
" style="fill:#6396c6;fill-opacity:0.8;"/>
    <path clip-path="url(#pd05d40ed19)" d="M 203.970261 251.934343 
L 193.005734 267.568943 
L 211.675122 272.528447 
z
" style="fill:#669acc;fill-opacity:0.8;"/>
    <path clip-path="url(#pd05d40ed19)" d="M 311.492369 216.459854 
L 292.486907 211.964005 
L 281.824029 230.202921 
z
" style="fill:#6aa0d3;fill-opacity:0.8;"/>
    <path clip-path="url(#pd05d40ed19)" d="M 222.609283 257.803554 
L 241.378032 262.767914 
L 252.184598 246.071545 
z
" style="fill:#679cce;fill-opacity:0.8;"/>
    <path clip-path="url(#pd05d40ed19)" d="M 252.184598 246.071545 
L 271.0699 250.557125 
L 281.824029 230.202921 
z
" style="fill:#6ca4d8;fill-opacity:0.8;"/>
    <path clip-path="url(#pd05d40ed19)" d="M 222.609283 257.803554 
L 211.675122 272.528447 
L 241.378032 262.767914 
z
" style="fill:#6498c9;fill-opacity:0.8;"/>
    <path clip-path="url(#pd05d40ed19)" d="M 193.005734 267.568943 
L 163.303647 274.958302 
L 181.884355 279.740137 
z
" style="fill:#6193c2;fill-opacity:0.8;"/>
    <path clip-path="url(#pd05d40ed19)" d="M 281.824029 230.202921 
L 300.868264 233.883966 
L 311.492369 216.459854 
z
" style="fill:#6aa1d4;fill-opacity:0.8;"/>
    <path clip-path="url(#pd05d40ed19)" d="M 330.684204 219.742377 
L 340.992645 208.662634 
L 311.492369 216.459854 
z
" style="fill:#6294c4;fill-opacity:0.8;"/>
    <path clip-path="url(#pd05d40ed19)" d="M 211.675122 272.528447 
L 193.005734 267.568943 
L 181.884355 279.740137 
z
" style="fill:#6192c1;fill-opacity:0.8;"/>
    <path clip-path="url(#pd05d40ed19)" d="M 252.184598 246.071545 
L 241.378032 262.767914 
L 260.297206 266.694146 
z
" style="fill:#699fd2;fill-opacity:0.8;"/>
    <path clip-path="url(#pd05d40ed19)" d="M 260.297206 266.694146 
L 271.0699 250.557125 
L 252.184598 246.071545 
z
" style="fill:#679cce;fill-opacity:0.8;"/>
    <path clip-path="url(#pd05d40ed19)" d="M 281.824029 230.202921 
L 271.0699 250.557125 
L 290.127488 253.755342 
z
" style="fill:#6ea7dc;fill-opacity:0.8;"/>
    <path clip-path="url(#pd05d40ed19)" d="M 290.127488 253.755342 
L 300.868264 233.883966 
L 281.824029 230.202921 
z
" style="fill:#6da5d9;fill-opacity:0.8;"/>
    <path clip-path="url(#pd05d40ed19)" d="M 241.378032 262.767914 
L 211.675122 272.528447 
L 230.484294 276.633999 
z
" style="fill:#6598c9;fill-opacity:0.8;"/>
    <path clip-path="url(#pd05d40ed19)" d="M 300.868264 233.883966 
L 320.109268 236.270907 
L 311.492369 216.459854 
z
" style="fill:#6ca4d8;fill-opacity:0.8;"/>
    <path clip-path="url(#pd05d40ed19)" d="M 311.492369 216.459854 
L 320.109268 236.270907 
L 330.684204 219.742377 
z
" style="fill:#69a0d3;fill-opacity:0.8;"/>
    <path clip-path="url(#pd05d40ed19)" d="M 181.884355 279.740137 
L 200.598512 283.71044 
L 211.675122 272.528447 
z
" style="fill:#6193c2;fill-opacity:0.8;"/>
    <path clip-path="url(#pd05d40ed19)" d="M 290.127488 253.755342 
L 320.109268 236.270907 
L 300.868264 233.883966 
z
" style="fill:#6fa8dd;fill-opacity:0.8;"/>
    <path clip-path="url(#pd05d40ed19)" d="M 279.39236 269.384563 
L 271.0699 250.557125 
L 260.297206 266.694146 
z
" style="fill:#6aa1d4;fill-opacity:0.8;"/>
    <path clip-path="url(#pd05d40ed19)" d="M 241.378032 262.767914 
L 249.452001 279.935376 
L 260.297206 266.694146 
z
" style="fill:#6497c8;fill-opacity:0.8;"/>
    <path clip-path="url(#pd05d40ed19)" d="M 279.39236 269.384563 
L 290.127488 253.755342 
L 271.0699 250.557125 
z
" style="fill:#689ed1;fill-opacity:0.8;"/>
    <path clip-path="url(#pd05d40ed19)" d="M 230.484294 276.633999 
L 249.452001 279.935376 
L 241.378032 262.767914 
z
" style="fill:#669acc;fill-opacity:0.8;"/>
    <path clip-path="url(#pd05d40ed19)" d="M 211.675122 272.528447 
L 219.464276 286.876032 
L 230.484294 276.633999 
z
" style="fill:#5f90be;fill-opacity:0.8;"/>
    <path clip-path="url(#pd05d40ed19)" d="M 211.675122 272.528447 
L 200.598512 283.71044 
L 219.464276 286.876032 
z
" style="fill:#6295c4;fill-opacity:0.8;"/>
    <path clip-path="url(#pd05d40ed19)" d="M 309.3876 255.565548 
L 320.109268 236.270907 
L 290.127488 253.755342 
z
" style="fill:#6fa8de;fill-opacity:0.8;"/>
    <path clip-path="url(#pd05d40ed19)" d="M 260.297206 266.694146 
L 249.452001 279.935376 
L 279.39236 269.384563 
z
" style="fill:#669acc;fill-opacity:0.8;"/>
    <path clip-path="url(#pd05d40ed19)" d="M 309.3876 255.565548 
L 290.127488 253.755342 
L 279.39236 269.384563 
z
" style="fill:#6ba1d5;fill-opacity:0.8;"/>
    <path clip-path="url(#pd05d40ed19)" d="M 230.484294 276.633999 
L 219.464276 286.876032 
L 249.452001 279.935376 
z
" style="fill:#6092c1;fill-opacity:0.8;"/>
    <path clip-path="url(#pd05d40ed19)" d="M 249.452001 279.935376 
L 268.599785 282.149827 
L 279.39236 269.384563 
z
" style="fill:#669acc;fill-opacity:0.8;"/>
    <path clip-path="url(#pd05d40ed19)" d="M 279.39236 269.384563 
L 298.694685 270.645097 
L 309.3876 255.565548 
z
" style="fill:#6ba2d6;fill-opacity:0.8;"/>
    <path clip-path="url(#pd05d40ed19)" d="M 249.452001 279.935376 
L 219.464276 286.876032 
L 238.500092 289.159973 
z
" style="fill:#6092c1;fill-opacity:0.8;"/>
    <path clip-path="url(#pd05d40ed19)" d="M 268.599785 282.149827 
L 249.452001 279.935376 
L 238.500092 289.159973 
z
" style="fill:#6092c1;fill-opacity:0.8;"/>
    <path clip-path="url(#pd05d40ed19)" d="M 287.955922 283.061503 
L 298.694685 270.645097 
L 279.39236 269.384563 
z
" style="fill:#679cce;fill-opacity:0.8;"/>
    <path clip-path="url(#pd05d40ed19)" d="M 279.39236 269.384563 
L 268.599785 282.149827 
L 287.955922 283.061503 
z
" style="fill:#689ed0;fill-opacity:0.8;"/>
    <path clip-path="url(#pd05d40ed19)" d="M 238.500092 289.159973 
L 257.725189 290.7113 
L 268.599785 282.149827 
z
" style="fill:#6092c1;fill-opacity:0.8;"/>
    <path clip-path="url(#pd05d40ed19)" d="M 277.162725 291.148047 
L 287.955922 283.061503 
L 268.599785 282.149827 
z
" style="fill:#6092c1;fill-opacity:0.8;"/>
    <path clip-path="url(#pd05d40ed19)" d="M 268.599785 282.149827 
L 257.725189 290.7113 
L 277.162725 291.148047 
z
" style="fill:#6294c4;fill-opacity:0.8;"/>
   </g>
   <g id="text_21">
    <!-- Cost Increase from Optimal -->
    <defs>
     <path d="M 52 44.1875 
Q 55.375 50.25 60.0625 53.125 
Q 64.75 56 71.09375 56 
Q 79.640625 56 84.28125 50.015625 
Q 88.921875 44.046875 88.921875 33.015625 
L 88.921875 0 
L 79.890625 0 
L 79.890625 32.71875 
Q 79.890625 40.578125 77.09375 44.375 
Q 74.3125 48.1875 68.609375 48.1875 
Q 61.625 48.1875 57.5625 43.546875 
Q 53.515625 38.921875 53.515625 30.90625 
L 53.515625 0 
L 44.484375 0 
L 44.484375 32.71875 
Q 44.484375 40.625 41.703125 44.40625 
Q 38.921875 48.1875 33.109375 48.1875 
Q 26.21875 48.1875 22.15625 43.53125 
Q 18.109375 38.875 18.109375 30.90625 
L 18.109375 0 
L 9.078125 0 
L 9.078125 54.6875 
L 18.109375 54.6875 
L 18.109375 46.1875 
Q 21.1875 51.21875 25.484375 53.609375 
Q 29.78125 56 35.6875 56 
Q 41.65625 56 45.828125 52.96875 
Q 50 49.953125 52 44.1875 
z
" id="DejaVuSans-109"/>
     <path d="M 39.40625 66.21875 
Q 28.65625 66.21875 22.328125 58.203125 
Q 16.015625 50.203125 16.015625 36.375 
Q 16.015625 22.609375 22.328125 14.59375 
Q 28.65625 6.59375 39.40625 6.59375 
Q 50.140625 6.59375 56.421875 14.59375 
Q 62.703125 22.609375 62.703125 36.375 
Q 62.703125 50.203125 56.421875 58.203125 
Q 50.140625 66.21875 39.40625 66.21875 
z
M 39.40625 74.21875 
Q 54.734375 74.21875 63.90625 63.9375 
Q 73.09375 53.65625 73.09375 36.375 
Q 73.09375 19.140625 63.90625 8.859375 
Q 54.734375 -1.421875 39.40625 -1.421875 
Q 24.03125 -1.421875 14.8125 8.828125 
Q 5.609375 19.09375 5.609375 36.375 
Q 5.609375 53.65625 14.8125 63.9375 
Q 24.03125 74.21875 39.40625 74.21875 
z
" id="DejaVuSans-79"/>
     <path d="M 18.109375 8.203125 
L 18.109375 -20.796875 
L 9.078125 -20.796875 
L 9.078125 54.6875 
L 18.109375 54.6875 
L 18.109375 46.390625 
Q 20.953125 51.265625 25.265625 53.625 
Q 29.59375 56 35.59375 56 
Q 45.5625 56 51.78125 48.09375 
Q 58.015625 40.1875 58.015625 27.296875 
Q 58.015625 14.40625 51.78125 6.484375 
Q 45.5625 -1.421875 35.59375 -1.421875 
Q 29.59375 -1.421875 25.265625 0.953125 
Q 20.953125 3.328125 18.109375 8.203125 
z
M 48.6875 27.296875 
Q 48.6875 37.203125 44.609375 42.84375 
Q 40.53125 48.484375 33.40625 48.484375 
Q 26.265625 48.484375 22.1875 42.84375 
Q 18.109375 37.203125 18.109375 27.296875 
Q 18.109375 17.390625 22.1875 11.75 
Q 26.265625 6.109375 33.40625 6.109375 
Q 40.53125 6.109375 44.609375 11.75 
Q 48.6875 17.390625 48.6875 27.296875 
z
" id="DejaVuSans-112"/>
     <path d="M 9.421875 75.984375 
L 18.40625 75.984375 
L 18.40625 0 
L 9.421875 0 
z
" id="DejaVuSans-108"/>
    </defs>
    <g transform="translate(131.5035 30.72)scale(0.144 -0.144)">
     <use xlink:href="#DejaVuSans-67"/>
     <use x="69.824219" xlink:href="#DejaVuSans-111"/>
     <use x="131.005859" xlink:href="#DejaVuSans-115"/>
     <use x="183.105469" xlink:href="#DejaVuSans-116"/>
     <use x="222.314453" xlink:href="#DejaVuSans-32"/>
     <use x="254.101562" xlink:href="#DejaVuSans-73"/>
     <use x="283.59375" xlink:href="#DejaVuSans-110"/>
     <use x="346.972656" xlink:href="#DejaVuSans-99"/>
     <use x="401.953125" xlink:href="#DejaVuSans-114"/>
     <use x="443.035156" xlink:href="#DejaVuSans-101"/>
     <use x="504.558594" xlink:href="#DejaVuSans-97"/>
     <use x="565.837891" xlink:href="#DejaVuSans-115"/>
     <use x="617.9375" xlink:href="#DejaVuSans-101"/>
     <use x="679.460938" xlink:href="#DejaVuSans-32"/>
     <use x="711.248047" xlink:href="#DejaVuSans-102"/>
     <use x="746.453125" xlink:href="#DejaVuSans-114"/>
     <use x="787.535156" xlink:href="#DejaVuSans-111"/>
     <use x="848.716797" xlink:href="#DejaVuSans-109"/>
     <use x="946.128906" xlink:href="#DejaVuSans-32"/>
     <use x="977.916016" xlink:href="#DejaVuSans-79"/>
     <use x="1056.626953" xlink:href="#DejaVuSans-112"/>
     <use x="1120.103516" xlink:href="#DejaVuSans-116"/>
     <use x="1159.3125" xlink:href="#DejaVuSans-105"/>
     <use x="1187.095703" xlink:href="#DejaVuSans-109"/>
     <use x="1284.507812" xlink:href="#DejaVuSans-97"/>
     <use x="1345.787109" xlink:href="#DejaVuSans-108"/>
    </g>
   </g>
   <g id="legend_1">
    <g id="patch_6">
     <path d="M 12.8 91.8 
L 112.723438 91.8 
Q 114.723438 91.8 114.723438 89.8 
L 114.723438 61.44375 
Q 114.723438 59.44375 112.723438 59.44375 
L 12.8 59.44375 
Q 10.8 59.44375 10.8 61.44375 
L 10.8 89.8 
Q 10.8 91.8 12.8 91.8 
z
" style="fill:#e5e5e5;opacity:0.8;stroke:#cccccc;stroke-linejoin:miter;stroke-width:0.5;"/>
    </g>
    <g id="line2d_39"/>
    <g id="line2d_40">
     <g>
      <use style="fill:#6fa8de;fill-opacity:0.8;stroke:#6fa8de;stroke-opacity:0.8;" x="24.8" xlink:href="#mbfdf19fbcd" y="67.542188"/>
     </g>
    </g>
    <g id="text_22">
     <!-- Cost Surface -->
     <defs>
      <path d="M 8.5 21.578125 
L 8.5 54.6875 
L 17.484375 54.6875 
L 17.484375 21.921875 
Q 17.484375 14.15625 20.5 10.265625 
Q 23.53125 6.390625 29.59375 6.390625 
Q 36.859375 6.390625 41.078125 11.03125 
Q 45.3125 15.671875 45.3125 23.6875 
L 45.3125 54.6875 
L 54.296875 54.6875 
L 54.296875 0 
L 45.3125 0 
L 45.3125 8.40625 
Q 42.046875 3.421875 37.71875 1 
Q 33.40625 -1.421875 27.6875 -1.421875 
Q 18.265625 -1.421875 13.375 4.4375 
Q 8.5 10.296875 8.5 21.578125 
z
M 31.109375 56 
z
" id="DejaVuSans-117"/>
     </defs>
     <g transform="translate(42.8 71.042188)scale(0.1 -0.1)">
      <use xlink:href="#DejaVuSans-67"/>
      <use x="69.824219" xlink:href="#DejaVuSans-111"/>
      <use x="131.005859" xlink:href="#DejaVuSans-115"/>
      <use x="183.105469" xlink:href="#DejaVuSans-116"/>
      <use x="222.314453" xlink:href="#DejaVuSans-32"/>
      <use x="254.101562" xlink:href="#DejaVuSans-83"/>
      <use x="317.578125" xlink:href="#DejaVuSans-117"/>
      <use x="380.957031" xlink:href="#DejaVuSans-114"/>
      <use x="422.070312" xlink:href="#DejaVuSans-102"/>
      <use x="457.275391" xlink:href="#DejaVuSans-97"/>
      <use x="518.554688" xlink:href="#DejaVuSans-99"/>
      <use x="573.535156" xlink:href="#DejaVuSans-101"/>
     </g>
    </g>
    <g id="line2d_41"/>
    <g id="line2d_42">
     <defs>
      <path d="M 0 -3 
L -0.673542 -0.927051 
L -2.85317 -0.927051 
L -1.089814 0.354102 
L -1.763356 2.427051 
L -0 1.145898 
L 1.763356 2.427051 
L 1.089814 0.354102 
L 2.85317 -0.927051 
L 0.673542 -0.927051 
z
" id="me881173466" style="stroke:#ff0000;stroke-linejoin:bevel;"/>
     </defs>
     <g>
      <use style="fill:#ff0000;stroke:#ff0000;stroke-linejoin:bevel;" x="24.8" xlink:href="#me881173466" y="82.220313"/>
     </g>
    </g>
    <g id="text_23">
     <!-- Optimal Point -->
     <defs>
      <path d="M 19.671875 64.796875 
L 19.671875 37.40625 
L 32.078125 37.40625 
Q 38.96875 37.40625 42.71875 40.96875 
Q 46.484375 44.53125 46.484375 51.125 
Q 46.484375 57.671875 42.71875 61.234375 
Q 38.96875 64.796875 32.078125 64.796875 
z
M 9.8125 72.90625 
L 32.078125 72.90625 
Q 44.34375 72.90625 50.609375 67.359375 
Q 56.890625 61.8125 56.890625 51.125 
Q 56.890625 40.328125 50.609375 34.8125 
Q 44.34375 29.296875 32.078125 29.296875 
L 19.671875 29.296875 
L 19.671875 0 
L 9.8125 0 
z
" id="DejaVuSans-80"/>
     </defs>
     <g transform="translate(42.8 85.720313)scale(0.1 -0.1)">
      <use xlink:href="#DejaVuSans-79"/>
      <use x="78.710938" xlink:href="#DejaVuSans-112"/>
      <use x="142.1875" xlink:href="#DejaVuSans-116"/>
      <use x="181.396484" xlink:href="#DejaVuSans-105"/>
      <use x="209.179688" xlink:href="#DejaVuSans-109"/>
      <use x="306.591797" xlink:href="#DejaVuSans-97"/>
      <use x="367.871094" xlink:href="#DejaVuSans-108"/>
      <use x="395.654297" xlink:href="#DejaVuSans-32"/>
      <use x="427.441406" xlink:href="#DejaVuSans-80"/>
      <use x="487.697266" xlink:href="#DejaVuSans-111"/>
      <use x="548.878906" xlink:href="#DejaVuSans-105"/>
      <use x="576.662109" xlink:href="#DejaVuSans-110"/>
      <use x="640.041016" xlink:href="#DejaVuSans-116"/>
     </g>
    </g>
   </g>
   <g id="line2d_43">
    <g clip-path="url(#pd05d40ed19)">
     <use style="fill:#ff0000;stroke:#ff0000;stroke-linejoin:bevel;" x="181.884354" xlink:href="#me881173466" y="279.740136"/>
    </g>
   </g>
  </g>
 </g>
 <defs>
  <clipPath id="pd05d40ed19">
   <rect height="324" width="439.2" x="10.8" y="10.8"/>
  </clipPath>
 </defs>
</svg>
